<mxfile host="app.diagrams.net" agent="Mozilla/5.0 (Windows NT 10.0; Win64; x64) AppleWebKit/537.36 (KHTML, like Gecko) Chrome/130.0.0.0 Safari/537.36" version="24.8.4">
  <diagram name="Seite-1" id="sRHaPZORsPMR_08VSGCJ">
    <mxGraphModel dx="2440" dy="1301" grid="1" gridSize="10" guides="1" tooltips="1" connect="1" arrows="1" fold="1" page="1" pageScale="1" pageWidth="2339" pageHeight="3300" math="0" shadow="0">
      <root>
        <mxCell id="0" />
        <mxCell id="1" parent="0" />
        <mxCell id="rh1olKwZ0RmSQ8hatOXi-168" value="" style="endArrow=none;html=1;rounded=0;edgeStyle=orthogonalEdgeStyle;entryX=1;entryY=0.5;entryDx=0;entryDy=0;entryPerimeter=0;exitX=0.5;exitY=0;exitDx=0;exitDy=0;" edge="1" parent="1" source="rh1olKwZ0RmSQ8hatOXi-166" target="rh1olKwZ0RmSQ8hatOXi-164">
          <mxGeometry width="50" height="50" relative="1" as="geometry">
            <mxPoint x="2480" y="410" as="sourcePoint" />
            <mxPoint x="2675.5" y="259.49" as="targetPoint" />
          </mxGeometry>
        </mxCell>
        <mxCell id="6miYc8tYNYqCxA-3Jg5B-190" value="" style="group" parent="1" vertex="1" connectable="0">
          <mxGeometry x="2100" y="2680" width="160" height="70" as="geometry" />
        </mxCell>
        <mxCell id="6miYc8tYNYqCxA-3Jg5B-191" value="«artifact»&lt;br&gt;&lt;b&gt;Generated Source Code&lt;/b&gt;" style="html=1;align=center;verticalAlign=middle;dashed=0;whiteSpace=wrap;" parent="6miYc8tYNYqCxA-3Jg5B-190" vertex="1">
          <mxGeometry width="160" height="70" as="geometry" />
        </mxCell>
        <mxCell id="6miYc8tYNYqCxA-3Jg5B-192" value="" style="html=1;outlineConnect=0;whiteSpace=wrap;shape=mxgraph.archimate3.artifact;" parent="6miYc8tYNYqCxA-3Jg5B-190" vertex="1">
          <mxGeometry x="141.66999999999996" y="5" width="13.33" height="20" as="geometry" />
        </mxCell>
        <mxCell id="6b3tNRl51yqgzQoA3RTX-1" value="«Component»&lt;br&gt;&lt;b&gt;FormPreviewComponent&lt;/b&gt;" style="html=1;dropTarget=0;whiteSpace=wrap;" parent="1" vertex="1">
          <mxGeometry x="1810" y="2520" width="180" height="70" as="geometry" />
        </mxCell>
        <mxCell id="6b3tNRl51yqgzQoA3RTX-2" value="" style="shape=module;jettyWidth=8;jettyHeight=4;" parent="6b3tNRl51yqgzQoA3RTX-1" vertex="1">
          <mxGeometry x="1" width="20" height="20" relative="1" as="geometry">
            <mxPoint x="-27" y="7" as="offset" />
          </mxGeometry>
        </mxCell>
        <mxCell id="6b3tNRl51yqgzQoA3RTX-3" value="«Component»&lt;br&gt;&lt;b&gt;FormView&lt;/b&gt;" style="html=1;dropTarget=0;whiteSpace=wrap;" parent="1" vertex="1">
          <mxGeometry x="1810" y="2360" width="180" height="70" as="geometry" />
        </mxCell>
        <mxCell id="6b3tNRl51yqgzQoA3RTX-4" value="" style="shape=module;jettyWidth=8;jettyHeight=4;" parent="6b3tNRl51yqgzQoA3RTX-3" vertex="1">
          <mxGeometry x="1" width="20" height="20" relative="1" as="geometry">
            <mxPoint x="-27" y="7" as="offset" />
          </mxGeometry>
        </mxCell>
        <mxCell id="6b3tNRl51yqgzQoA3RTX-19" value="" style="html=1;dropTarget=0;whiteSpace=wrap;" parent="1" vertex="1">
          <mxGeometry x="1410" y="2000" width="720" height="280" as="geometry" />
        </mxCell>
        <mxCell id="6b3tNRl51yqgzQoA3RTX-20" value="" style="shape=module;jettyWidth=8;jettyHeight=4;" parent="6b3tNRl51yqgzQoA3RTX-19" vertex="1">
          <mxGeometry x="1" width="20" height="20" relative="1" as="geometry">
            <mxPoint x="-27" y="7" as="offset" />
          </mxGeometry>
        </mxCell>
        <mxCell id="6b3tNRl51yqgzQoA3RTX-28" value="«component»&lt;br style=&quot;border-color: var(--border-color);&quot;&gt;&lt;b style=&quot;border-color: var(--border-color);&quot;&gt;FormDataStore&lt;/b&gt;" style="text;html=1;strokeColor=none;fillColor=none;align=center;verticalAlign=middle;whiteSpace=wrap;rounded=0;" parent="1" vertex="1">
          <mxGeometry x="1410" y="2000" width="100" height="40" as="geometry" />
        </mxCell>
        <mxCell id="6b3tNRl51yqgzQoA3RTX-146" style="edgeStyle=orthogonalEdgeStyle;rounded=0;orthogonalLoop=1;jettySize=auto;html=1;entryX=0.5;entryY=1;entryDx=0;entryDy=0;exitX=0.72;exitY=0.014;exitDx=0;exitDy=0;exitPerimeter=0;" parent="1" source="6b3tNRl51yqgzQoA3RTX-7" target="6b3tNRl51yqgzQoA3RTX-59" edge="1">
          <mxGeometry relative="1" as="geometry">
            <Array as="points" />
          </mxGeometry>
        </mxCell>
        <mxCell id="6b3tNRl51yqgzQoA3RTX-7" value="«State»&lt;br&gt;&lt;b&gt;FormDataState&lt;/b&gt;" style="html=1;dropTarget=0;whiteSpace=wrap;" parent="1" vertex="1">
          <mxGeometry x="1680" y="2080" width="180" height="70" as="geometry" />
        </mxCell>
        <mxCell id="6b3tNRl51yqgzQoA3RTX-8" value="" style="shape=module;jettyWidth=8;jettyHeight=4;" parent="6b3tNRl51yqgzQoA3RTX-7" vertex="1">
          <mxGeometry x="1" width="20" height="20" relative="1" as="geometry">
            <mxPoint x="-27" y="7" as="offset" />
          </mxGeometry>
        </mxCell>
        <mxCell id="6b3tNRl51yqgzQoA3RTX-35" value="" style="fontStyle=0;labelPosition=right;verticalLabelPosition=middle;align=left;verticalAlign=middle;spacingLeft=2;" parent="1" vertex="1">
          <mxGeometry x="1890" y="2270" width="20" height="20" as="geometry" />
        </mxCell>
        <mxCell id="6b3tNRl51yqgzQoA3RTX-37" value="" style="endArrow=classic;html=1;rounded=0;exitX=1;exitY=0.5;exitDx=0;exitDy=0;edgeStyle=orthogonalEdgeStyle;" parent="1" source="6b3tNRl51yqgzQoA3RTX-7" target="6b3tNRl51yqgzQoA3RTX-35" edge="1">
          <mxGeometry width="50" height="50" relative="1" as="geometry">
            <mxPoint x="1680" y="2440" as="sourcePoint" />
            <mxPoint x="1730" y="2390" as="targetPoint" />
          </mxGeometry>
        </mxCell>
        <mxCell id="6b3tNRl51yqgzQoA3RTX-53" value="Updated State" style="edgeLabel;html=1;align=center;verticalAlign=middle;resizable=0;points=[];" parent="6b3tNRl51yqgzQoA3RTX-37" vertex="1" connectable="0">
          <mxGeometry x="-0.0992" y="-1" relative="1" as="geometry">
            <mxPoint as="offset" />
          </mxGeometry>
        </mxCell>
        <mxCell id="6b3tNRl51yqgzQoA3RTX-38" value="" style="endArrow=classic;html=1;rounded=0;" parent="1" source="6b3tNRl51yqgzQoA3RTX-35" target="6b3tNRl51yqgzQoA3RTX-3" edge="1">
          <mxGeometry width="50" height="50" relative="1" as="geometry">
            <mxPoint x="1680" y="2430" as="sourcePoint" />
            <mxPoint x="1730" y="2380" as="targetPoint" />
          </mxGeometry>
        </mxCell>
        <mxCell id="6b3tNRl51yqgzQoA3RTX-51" value="Updated State" style="edgeLabel;html=1;align=center;verticalAlign=middle;resizable=0;points=[];" parent="6b3tNRl51yqgzQoA3RTX-38" vertex="1" connectable="0">
          <mxGeometry x="-0.1571" y="1" relative="1" as="geometry">
            <mxPoint as="offset" />
          </mxGeometry>
        </mxCell>
        <mxCell id="6b3tNRl51yqgzQoA3RTX-40" value="" style="endArrow=classic;html=1;rounded=0;entryX=0.5;entryY=0;entryDx=0;entryDy=0;exitX=1;exitY=0.5;exitDx=0;exitDy=0;edgeStyle=orthogonalEdgeStyle;" parent="1" source="6b3tNRl51yqgzQoA3RTX-3" target="6b3tNRl51yqgzQoA3RTX-83" edge="1">
          <mxGeometry width="50" height="50" relative="1" as="geometry">
            <mxPoint x="1750" y="2550" as="sourcePoint" />
            <mxPoint x="1800" y="2500" as="targetPoint" />
          </mxGeometry>
        </mxCell>
        <mxCell id="6b3tNRl51yqgzQoA3RTX-87" value="Input" style="edgeLabel;html=1;align=center;verticalAlign=middle;resizable=0;points=[];" parent="6b3tNRl51yqgzQoA3RTX-40" vertex="1" connectable="0">
          <mxGeometry x="-0.0395" relative="1" as="geometry">
            <mxPoint x="1" as="offset" />
          </mxGeometry>
        </mxCell>
        <mxCell id="6b3tNRl51yqgzQoA3RTX-45" value="" style="group" parent="1" vertex="1" connectable="0">
          <mxGeometry x="1820" y="2680" width="160" height="70" as="geometry" />
        </mxCell>
        <mxCell id="6b3tNRl51yqgzQoA3RTX-46" value="«artifact»&lt;br&gt;&lt;b&gt;User Interaction&lt;/b&gt;" style="html=1;align=center;verticalAlign=middle;dashed=0;whiteSpace=wrap;" parent="6b3tNRl51yqgzQoA3RTX-45" vertex="1">
          <mxGeometry width="160" height="70" as="geometry" />
        </mxCell>
        <mxCell id="6b3tNRl51yqgzQoA3RTX-48" value="" style="endArrow=classic;html=1;rounded=0;" parent="1" source="6b3tNRl51yqgzQoA3RTX-46" target="6b3tNRl51yqgzQoA3RTX-1" edge="1">
          <mxGeometry width="50" height="50" relative="1" as="geometry">
            <mxPoint x="1870" y="2580" as="sourcePoint" />
            <mxPoint x="1920" y="2530" as="targetPoint" />
          </mxGeometry>
        </mxCell>
        <mxCell id="6b3tNRl51yqgzQoA3RTX-89" value="User changes form data" style="edgeLabel;html=1;align=center;verticalAlign=middle;resizable=0;points=[];" parent="6b3tNRl51yqgzQoA3RTX-48" vertex="1" connectable="0">
          <mxGeometry x="0.0424" y="1" relative="1" as="geometry">
            <mxPoint as="offset" />
          </mxGeometry>
        </mxCell>
        <mxCell id="6b3tNRl51yqgzQoA3RTX-49" value="" style="endArrow=classic;html=1;rounded=0;edgeStyle=orthogonalEdgeStyle;" parent="1" source="6b3tNRl51yqgzQoA3RTX-3" target="6b3tNRl51yqgzQoA3RTX-50" edge="1">
          <mxGeometry width="50" height="50" relative="1" as="geometry">
            <mxPoint x="1590" y="2410" as="sourcePoint" />
            <mxPoint x="1640" y="2360" as="targetPoint" />
          </mxGeometry>
        </mxCell>
        <mxCell id="6b3tNRl51yqgzQoA3RTX-54" value="Invoke store method" style="edgeLabel;html=1;align=center;verticalAlign=middle;resizable=0;points=[];" parent="6b3tNRl51yqgzQoA3RTX-49" vertex="1" connectable="0">
          <mxGeometry x="-0.0269" y="1" relative="1" as="geometry">
            <mxPoint x="23" y="-1" as="offset" />
          </mxGeometry>
        </mxCell>
        <mxCell id="6b3tNRl51yqgzQoA3RTX-50" value="" style="fontStyle=0;labelPosition=right;verticalLabelPosition=middle;align=left;verticalAlign=middle;spacingLeft=2;" parent="1" vertex="1">
          <mxGeometry x="1570" y="2270" width="20" height="20" as="geometry" />
        </mxCell>
        <mxCell id="6b3tNRl51yqgzQoA3RTX-55" value="" style="endArrow=classic;html=1;rounded=0;entryX=0;entryY=0.5;entryDx=0;entryDy=0;exitX=0.5;exitY=0;exitDx=0;exitDy=0;edgeStyle=orthogonalEdgeStyle;" parent="1" source="6b3tNRl51yqgzQoA3RTX-50" target="6b3tNRl51yqgzQoA3RTX-7" edge="1">
          <mxGeometry width="50" height="50" relative="1" as="geometry">
            <mxPoint x="1410" y="2370" as="sourcePoint" />
            <mxPoint x="1580" y="2150.0000000000005" as="targetPoint" />
          </mxGeometry>
        </mxCell>
        <mxCell id="6b3tNRl51yqgzQoA3RTX-59" value="" style="fontStyle=0;labelPosition=right;verticalLabelPosition=middle;align=left;verticalAlign=middle;spacingLeft=2;" parent="1" vertex="1">
          <mxGeometry x="1800" y="1990" width="20" height="20" as="geometry" />
        </mxCell>
        <mxCell id="6b3tNRl51yqgzQoA3RTX-64" value="&lt;b&gt;LocalStorage&lt;/b&gt;" style="html=1;dropTarget=0;whiteSpace=wrap;" parent="1" vertex="1">
          <mxGeometry x="1680" y="1850" width="180" height="70" as="geometry" />
        </mxCell>
        <mxCell id="6b3tNRl51yqgzQoA3RTX-68" value="" style="endArrow=classic;html=1;rounded=0;entryX=0.725;entryY=1.001;entryDx=0;entryDy=0;entryPerimeter=0;" parent="1" source="6b3tNRl51yqgzQoA3RTX-59" target="6b3tNRl51yqgzQoA3RTX-64" edge="1">
          <mxGeometry width="50" height="50" relative="1" as="geometry">
            <mxPoint x="1790" y="1980" as="sourcePoint" />
            <mxPoint x="1810" y="1930" as="targetPoint" />
          </mxGeometry>
        </mxCell>
        <mxCell id="6b3tNRl51yqgzQoA3RTX-73" value="Save/delete data" style="edgeLabel;html=1;align=center;verticalAlign=middle;resizable=0;points=[];" parent="6b3tNRl51yqgzQoA3RTX-68" vertex="1" connectable="0">
          <mxGeometry x="-0.1817" relative="1" as="geometry">
            <mxPoint y="-11" as="offset" />
          </mxGeometry>
        </mxCell>
        <mxCell id="6b3tNRl51yqgzQoA3RTX-145" style="edgeStyle=orthogonalEdgeStyle;rounded=0;orthogonalLoop=1;jettySize=auto;html=1;exitX=0.5;exitY=1;exitDx=0;exitDy=0;entryX=0.224;entryY=-0.01;entryDx=0;entryDy=0;entryPerimeter=0;" parent="1" source="6b3tNRl51yqgzQoA3RTX-71" target="6b3tNRl51yqgzQoA3RTX-7" edge="1">
          <mxGeometry relative="1" as="geometry">
            <mxPoint x="1670" y="1980" as="targetPoint" />
          </mxGeometry>
        </mxCell>
        <mxCell id="6b3tNRl51yqgzQoA3RTX-71" value="" style="fontStyle=0;labelPosition=right;verticalLabelPosition=middle;align=left;verticalAlign=middle;spacingLeft=2;" parent="1" vertex="1">
          <mxGeometry x="1710" y="1990" width="20" height="20" as="geometry" />
        </mxCell>
        <mxCell id="6b3tNRl51yqgzQoA3RTX-72" value="" style="endArrow=classic;html=1;rounded=0;exitX=0.222;exitY=1;exitDx=0;exitDy=0;exitPerimeter=0;" parent="1" source="6b3tNRl51yqgzQoA3RTX-64" target="6b3tNRl51yqgzQoA3RTX-71" edge="1">
          <mxGeometry width="50" height="50" relative="1" as="geometry">
            <mxPoint x="1720" y="1940" as="sourcePoint" />
            <mxPoint x="1740" y="1980" as="targetPoint" />
          </mxGeometry>
        </mxCell>
        <mxCell id="6b3tNRl51yqgzQoA3RTX-74" value="Load data" style="edgeLabel;html=1;align=center;verticalAlign=middle;resizable=0;points=[];" parent="6b3tNRl51yqgzQoA3RTX-72" vertex="1" connectable="0">
          <mxGeometry x="0.1665" relative="1" as="geometry">
            <mxPoint y="-11" as="offset" />
          </mxGeometry>
        </mxCell>
        <mxCell id="6b3tNRl51yqgzQoA3RTX-75" value="" style="group" parent="1" vertex="1" connectable="0">
          <mxGeometry x="830" y="2080" width="160" height="70" as="geometry" />
        </mxCell>
        <mxCell id="6b3tNRl51yqgzQoA3RTX-76" value="«artifact»&lt;br&gt;&lt;b&gt;Object Definition&lt;/b&gt;" style="html=1;align=center;verticalAlign=middle;dashed=0;whiteSpace=wrap;" parent="6b3tNRl51yqgzQoA3RTX-75" vertex="1">
          <mxGeometry width="160" height="70" as="geometry" />
        </mxCell>
        <mxCell id="6b3tNRl51yqgzQoA3RTX-77" value="" style="html=1;outlineConnect=0;whiteSpace=wrap;shape=mxgraph.archimate3.artifact;" parent="6b3tNRl51yqgzQoA3RTX-75" vertex="1">
          <mxGeometry x="141.66999999999996" y="5" width="13.33" height="20" as="geometry" />
        </mxCell>
        <mxCell id="6b3tNRl51yqgzQoA3RTX-160" style="edgeStyle=orthogonalEdgeStyle;rounded=0;orthogonalLoop=1;jettySize=auto;html=1;entryX=0;entryY=0.5;entryDx=0;entryDy=0;" parent="1" source="6b3tNRl51yqgzQoA3RTX-78" target="6b3tNRl51yqgzQoA3RTX-159" edge="1">
          <mxGeometry relative="1" as="geometry" />
        </mxCell>
        <mxCell id="6b3tNRl51yqgzQoA3RTX-78" value="«component»&lt;br&gt;&lt;b&gt;ObjectDefinitionConvertService&lt;/b&gt;" style="html=1;dropTarget=0;whiteSpace=wrap;" parent="1" vertex="1">
          <mxGeometry x="1130" y="2080" width="220" height="70" as="geometry" />
        </mxCell>
        <mxCell id="6b3tNRl51yqgzQoA3RTX-79" value="" style="shape=module;jettyWidth=8;jettyHeight=4;" parent="6b3tNRl51yqgzQoA3RTX-78" vertex="1">
          <mxGeometry x="1" width="20" height="20" relative="1" as="geometry">
            <mxPoint x="-27" y="7" as="offset" />
          </mxGeometry>
        </mxCell>
        <mxCell id="6b3tNRl51yqgzQoA3RTX-80" value="" style="endArrow=classic;html=1;rounded=0;entryX=0;entryY=0.5;entryDx=0;entryDy=0;exitX=1;exitY=0.5;exitDx=0;exitDy=0;" parent="1" source="6b3tNRl51yqgzQoA3RTX-76" target="6b3tNRl51yqgzQoA3RTX-78" edge="1">
          <mxGeometry width="50" height="50" relative="1" as="geometry">
            <mxPoint x="990" y="2060" as="sourcePoint" />
            <mxPoint x="1040" y="2010" as="targetPoint" />
          </mxGeometry>
        </mxCell>
        <mxCell id="6b3tNRl51yqgzQoA3RTX-81" value="User übergibt&lt;br&gt;Objekt Definition" style="edgeLabel;html=1;align=center;verticalAlign=middle;resizable=0;points=[];" parent="6b3tNRl51yqgzQoA3RTX-80" vertex="1" connectable="0">
          <mxGeometry x="-0.2921" relative="1" as="geometry">
            <mxPoint x="18" as="offset" />
          </mxGeometry>
        </mxCell>
        <mxCell id="6b3tNRl51yqgzQoA3RTX-82" value="" style="group" parent="1" vertex="1" connectable="0">
          <mxGeometry x="2100" y="2520" width="160" height="70" as="geometry" />
        </mxCell>
        <mxCell id="6b3tNRl51yqgzQoA3RTX-83" value="«Service»&lt;br&gt;&lt;b&gt;FormDataConvertService&lt;/b&gt;" style="html=1;align=center;verticalAlign=middle;dashed=0;whiteSpace=wrap;" parent="6b3tNRl51yqgzQoA3RTX-82" vertex="1">
          <mxGeometry width="160" height="70" as="geometry" />
        </mxCell>
        <mxCell id="6b3tNRl51yqgzQoA3RTX-90" value="" style="endArrow=classic;html=1;rounded=0;exitX=0.5;exitY=1;exitDx=0;exitDy=0;entryX=0.5;entryY=0;entryDx=0;entryDy=0;" parent="1" source="6b3tNRl51yqgzQoA3RTX-83" target="6miYc8tYNYqCxA-3Jg5B-191" edge="1">
          <mxGeometry width="50" height="50" relative="1" as="geometry">
            <mxPoint x="2410" y="2690" as="sourcePoint" />
            <mxPoint x="2460" y="2640" as="targetPoint" />
          </mxGeometry>
        </mxCell>
        <mxCell id="6b3tNRl51yqgzQoA3RTX-91" value="Generates form data" style="edgeLabel;html=1;align=center;verticalAlign=middle;resizable=0;points=[];" parent="6b3tNRl51yqgzQoA3RTX-90" vertex="1" connectable="0">
          <mxGeometry x="-0.0898" y="-1" relative="1" as="geometry">
            <mxPoint as="offset" />
          </mxGeometry>
        </mxCell>
        <mxCell id="6b3tNRl51yqgzQoA3RTX-163" style="edgeStyle=orthogonalEdgeStyle;rounded=0;orthogonalLoop=1;jettySize=auto;html=1;entryX=0.5;entryY=0;entryDx=0;entryDy=0;" parent="1" source="6b3tNRl51yqgzQoA3RTX-92" target="6b3tNRl51yqgzQoA3RTX-164" edge="1">
          <mxGeometry relative="1" as="geometry">
            <mxPoint x="2760" y="1960" as="targetPoint" />
          </mxGeometry>
        </mxCell>
        <mxCell id="6b3tNRl51yqgzQoA3RTX-165" value="Display error, z. b.&lt;br&gt;bei Fehler im Import" style="edgeLabel;html=1;align=center;verticalAlign=middle;resizable=0;points=[];" parent="6b3tNRl51yqgzQoA3RTX-163" vertex="1" connectable="0">
          <mxGeometry x="0.9542" y="-3" relative="1" as="geometry">
            <mxPoint x="3" y="-11" as="offset" />
          </mxGeometry>
        </mxCell>
        <mxCell id="6b3tNRl51yqgzQoA3RTX-92" value="«Service»&lt;br&gt;&lt;b&gt;ErrorCreatorService&lt;/b&gt;" style="html=1;dropTarget=0;whiteSpace=wrap;" parent="1" vertex="1">
          <mxGeometry x="1150" y="1790" width="180" height="70" as="geometry" />
        </mxCell>
        <mxCell id="6b3tNRl51yqgzQoA3RTX-93" value="" style="shape=module;jettyWidth=8;jettyHeight=4;" parent="6b3tNRl51yqgzQoA3RTX-92" vertex="1">
          <mxGeometry x="1" width="20" height="20" relative="1" as="geometry">
            <mxPoint x="-27" y="7" as="offset" />
          </mxGeometry>
        </mxCell>
        <mxCell id="6b3tNRl51yqgzQoA3RTX-94" value="" style="endArrow=classic;html=1;rounded=0;" parent="1" source="6b3tNRl51yqgzQoA3RTX-92" target="6b3tNRl51yqgzQoA3RTX-78" edge="1">
          <mxGeometry width="50" height="50" relative="1" as="geometry">
            <mxPoint x="1220" y="2040" as="sourcePoint" />
            <mxPoint x="1270" y="1990" as="targetPoint" />
          </mxGeometry>
        </mxCell>
        <mxCell id="6b3tNRl51yqgzQoA3RTX-141" style="edgeStyle=orthogonalEdgeStyle;rounded=0;orthogonalLoop=1;jettySize=auto;html=1;exitX=0.25;exitY=0;exitDx=0;exitDy=0;entryX=0.25;entryY=1;entryDx=0;entryDy=0;" parent="1" source="6b3tNRl51yqgzQoA3RTX-127" target="6b3tNRl51yqgzQoA3RTX-95" edge="1">
          <mxGeometry relative="1" as="geometry" />
        </mxCell>
        <mxCell id="6b3tNRl51yqgzQoA3RTX-143" value="Output" style="edgeLabel;html=1;align=center;verticalAlign=middle;resizable=0;points=[];" parent="6b3tNRl51yqgzQoA3RTX-141" vertex="1" connectable="0">
          <mxGeometry x="0.0924" relative="1" as="geometry">
            <mxPoint as="offset" />
          </mxGeometry>
        </mxCell>
        <mxCell id="6b3tNRl51yqgzQoA3RTX-176" style="edgeStyle=orthogonalEdgeStyle;rounded=0;orthogonalLoop=1;jettySize=auto;html=1;" parent="1" source="6b3tNRl51yqgzQoA3RTX-95" target="6b3tNRl51yqgzQoA3RTX-173" edge="1">
          <mxGeometry relative="1" as="geometry" />
        </mxCell>
        <mxCell id="6b3tNRl51yqgzQoA3RTX-177" value="Export" style="edgeLabel;html=1;align=center;verticalAlign=middle;resizable=0;points=[];" parent="6b3tNRl51yqgzQoA3RTX-176" vertex="1" connectable="0">
          <mxGeometry x="-0.2008" y="-1" relative="1" as="geometry">
            <mxPoint x="9" y="-1" as="offset" />
          </mxGeometry>
        </mxCell>
        <mxCell id="6b3tNRl51yqgzQoA3RTX-95" value="«Component»&lt;br&gt;&lt;b&gt;SettingsView&lt;/b&gt;" style="html=1;dropTarget=0;whiteSpace=wrap;" parent="1" vertex="1">
          <mxGeometry x="2617.5" y="2360" width="180" height="70" as="geometry" />
        </mxCell>
        <mxCell id="6b3tNRl51yqgzQoA3RTX-96" value="" style="shape=module;jettyWidth=8;jettyHeight=4;" parent="6b3tNRl51yqgzQoA3RTX-95" vertex="1">
          <mxGeometry x="1" width="20" height="20" relative="1" as="geometry">
            <mxPoint x="-27" y="7" as="offset" />
          </mxGeometry>
        </mxCell>
        <mxCell id="6b3tNRl51yqgzQoA3RTX-97" value="" style="html=1;dropTarget=0;whiteSpace=wrap;" parent="1" vertex="1">
          <mxGeometry x="2217.5" y="2000" width="720" height="280" as="geometry" />
        </mxCell>
        <mxCell id="6b3tNRl51yqgzQoA3RTX-98" value="" style="shape=module;jettyWidth=8;jettyHeight=4;" parent="6b3tNRl51yqgzQoA3RTX-97" vertex="1">
          <mxGeometry x="1" width="20" height="20" relative="1" as="geometry">
            <mxPoint x="-27" y="7" as="offset" />
          </mxGeometry>
        </mxCell>
        <mxCell id="6b3tNRl51yqgzQoA3RTX-99" value="«component»&lt;br style=&quot;border-color: var(--border-color);&quot;&gt;&lt;b style=&quot;border-color: var(--border-color);&quot;&gt;SettingsStore&lt;/b&gt;" style="text;html=1;strokeColor=none;fillColor=none;align=center;verticalAlign=middle;whiteSpace=wrap;rounded=0;" parent="1" vertex="1">
          <mxGeometry x="2217.5" y="2000" width="100" height="40" as="geometry" />
        </mxCell>
        <mxCell id="6b3tNRl51yqgzQoA3RTX-100" style="edgeStyle=orthogonalEdgeStyle;rounded=0;orthogonalLoop=1;jettySize=auto;html=1;" parent="1" source="6b3tNRl51yqgzQoA3RTX-102" target="6b3tNRl51yqgzQoA3RTX-104" edge="1">
          <mxGeometry relative="1" as="geometry">
            <mxPoint x="2477.5" y="2117" as="sourcePoint" />
            <mxPoint x="2627.5" y="2117" as="targetPoint" />
          </mxGeometry>
        </mxCell>
        <mxCell id="6b3tNRl51yqgzQoA3RTX-101" value="Update State" style="edgeLabel;html=1;align=center;verticalAlign=middle;resizable=0;points=[];" parent="6b3tNRl51yqgzQoA3RTX-100" vertex="1" connectable="0">
          <mxGeometry x="-0.062" y="-1" relative="1" as="geometry">
            <mxPoint y="-16" as="offset" />
          </mxGeometry>
        </mxCell>
        <mxCell id="6b3tNRl51yqgzQoA3RTX-102" value="«Service»&lt;br&gt;&lt;b&gt;SettingsStore&lt;/b&gt;" style="html=1;dropTarget=0;whiteSpace=wrap;" parent="1" vertex="1">
          <mxGeometry x="2297.5" y="2080" width="180" height="70" as="geometry" />
        </mxCell>
        <mxCell id="6b3tNRl51yqgzQoA3RTX-103" value="" style="shape=module;jettyWidth=8;jettyHeight=4;" parent="6b3tNRl51yqgzQoA3RTX-102" vertex="1">
          <mxGeometry x="1" width="20" height="20" relative="1" as="geometry">
            <mxPoint x="-27" y="7" as="offset" />
          </mxGeometry>
        </mxCell>
        <mxCell id="6b3tNRl51yqgzQoA3RTX-147" style="edgeStyle=orthogonalEdgeStyle;rounded=0;orthogonalLoop=1;jettySize=auto;html=1;entryX=0.5;entryY=1;entryDx=0;entryDy=0;exitX=0.5;exitY=0;exitDx=0;exitDy=0;" parent="1" source="6b3tNRl51yqgzQoA3RTX-104" target="6b3tNRl51yqgzQoA3RTX-117" edge="1">
          <mxGeometry relative="1" as="geometry" />
        </mxCell>
        <mxCell id="6b3tNRl51yqgzQoA3RTX-104" value="«Interface»&lt;br&gt;&lt;b&gt;FormDataState&lt;/b&gt;" style="html=1;dropTarget=0;whiteSpace=wrap;" parent="1" vertex="1">
          <mxGeometry x="2617.5" y="2080" width="180" height="70" as="geometry" />
        </mxCell>
        <mxCell id="6b3tNRl51yqgzQoA3RTX-105" value="" style="shape=module;jettyWidth=8;jettyHeight=4;" parent="6b3tNRl51yqgzQoA3RTX-104" vertex="1">
          <mxGeometry x="1" width="20" height="20" relative="1" as="geometry">
            <mxPoint x="-27" y="7" as="offset" />
          </mxGeometry>
        </mxCell>
        <mxCell id="6b3tNRl51yqgzQoA3RTX-106" value="" style="fontStyle=0;labelPosition=right;verticalLabelPosition=middle;align=left;verticalAlign=middle;spacingLeft=2;" parent="1" vertex="1">
          <mxGeometry x="2697.5" y="2270" width="20" height="20" as="geometry" />
        </mxCell>
        <mxCell id="6b3tNRl51yqgzQoA3RTX-107" value="" style="endArrow=classic;html=1;rounded=0;" parent="1" source="6b3tNRl51yqgzQoA3RTX-104" target="6b3tNRl51yqgzQoA3RTX-106" edge="1">
          <mxGeometry width="50" height="50" relative="1" as="geometry">
            <mxPoint x="2487.5" y="2440" as="sourcePoint" />
            <mxPoint x="2537.5" y="2390" as="targetPoint" />
          </mxGeometry>
        </mxCell>
        <mxCell id="6b3tNRl51yqgzQoA3RTX-108" value="Updated State" style="edgeLabel;html=1;align=center;verticalAlign=middle;resizable=0;points=[];" parent="6b3tNRl51yqgzQoA3RTX-107" vertex="1" connectable="0">
          <mxGeometry x="-0.0992" y="-1" relative="1" as="geometry">
            <mxPoint as="offset" />
          </mxGeometry>
        </mxCell>
        <mxCell id="6b3tNRl51yqgzQoA3RTX-109" value="" style="endArrow=classic;html=1;rounded=0;" parent="1" source="6b3tNRl51yqgzQoA3RTX-106" target="6b3tNRl51yqgzQoA3RTX-95" edge="1">
          <mxGeometry width="50" height="50" relative="1" as="geometry">
            <mxPoint x="2487.5" y="2430" as="sourcePoint" />
            <mxPoint x="2537.5" y="2380" as="targetPoint" />
          </mxGeometry>
        </mxCell>
        <mxCell id="6b3tNRl51yqgzQoA3RTX-110" value="Updated State" style="edgeLabel;html=1;align=center;verticalAlign=middle;resizable=0;points=[];" parent="6b3tNRl51yqgzQoA3RTX-109" vertex="1" connectable="0">
          <mxGeometry x="-0.1571" y="1" relative="1" as="geometry">
            <mxPoint as="offset" />
          </mxGeometry>
        </mxCell>
        <mxCell id="6b3tNRl51yqgzQoA3RTX-113" value="" style="endArrow=classic;html=1;rounded=0;edgeStyle=orthogonalEdgeStyle;" parent="1" source="6b3tNRl51yqgzQoA3RTX-95" target="6b3tNRl51yqgzQoA3RTX-115" edge="1">
          <mxGeometry width="50" height="50" relative="1" as="geometry">
            <mxPoint x="2397.5" y="2410" as="sourcePoint" />
            <mxPoint x="2447.5" y="2360" as="targetPoint" />
          </mxGeometry>
        </mxCell>
        <mxCell id="6b3tNRl51yqgzQoA3RTX-114" value="Invoke store method" style="edgeLabel;html=1;align=center;verticalAlign=middle;resizable=0;points=[];" parent="6b3tNRl51yqgzQoA3RTX-113" vertex="1" connectable="0">
          <mxGeometry x="-0.0269" y="1" relative="1" as="geometry">
            <mxPoint x="23" y="-1" as="offset" />
          </mxGeometry>
        </mxCell>
        <mxCell id="6b3tNRl51yqgzQoA3RTX-115" value="" style="fontStyle=0;labelPosition=right;verticalLabelPosition=middle;align=left;verticalAlign=middle;spacingLeft=2;" parent="1" vertex="1">
          <mxGeometry x="2377.5" y="2270" width="20" height="20" as="geometry" />
        </mxCell>
        <mxCell id="6b3tNRl51yqgzQoA3RTX-116" value="" style="endArrow=classic;html=1;rounded=0;entryX=0.5;entryY=1;entryDx=0;entryDy=0;exitX=0.5;exitY=0;exitDx=0;exitDy=0;" parent="1" source="6b3tNRl51yqgzQoA3RTX-115" target="6b3tNRl51yqgzQoA3RTX-102" edge="1">
          <mxGeometry width="50" height="50" relative="1" as="geometry">
            <mxPoint x="2217.5" y="2370" as="sourcePoint" />
            <mxPoint x="2267.5" y="2320" as="targetPoint" />
          </mxGeometry>
        </mxCell>
        <mxCell id="6b3tNRl51yqgzQoA3RTX-117" value="" style="fontStyle=0;labelPosition=right;verticalLabelPosition=middle;align=left;verticalAlign=middle;spacingLeft=2;" parent="1" vertex="1">
          <mxGeometry x="2607.5" y="1990" width="20" height="20" as="geometry" />
        </mxCell>
        <mxCell id="6b3tNRl51yqgzQoA3RTX-119" value="" style="endArrow=classic;html=1;rounded=0;edgeStyle=orthogonalEdgeStyle;entryX=1;entryY=0.25;entryDx=0;entryDy=0;exitX=0.5;exitY=0;exitDx=0;exitDy=0;" parent="1" source="6b3tNRl51yqgzQoA3RTX-117" target="6b3tNRl51yqgzQoA3RTX-64" edge="1">
          <mxGeometry width="50" height="50" relative="1" as="geometry">
            <mxPoint x="2597.5" y="1980" as="sourcePoint" />
            <mxPoint x="2618" y="1920.0699999999997" as="targetPoint" />
          </mxGeometry>
        </mxCell>
        <mxCell id="6b3tNRl51yqgzQoA3RTX-120" value="Save/delete data" style="edgeLabel;html=1;align=center;verticalAlign=middle;resizable=0;points=[];" parent="6b3tNRl51yqgzQoA3RTX-119" vertex="1" connectable="0">
          <mxGeometry x="-0.1817" relative="1" as="geometry">
            <mxPoint x="240" y="82" as="offset" />
          </mxGeometry>
        </mxCell>
        <mxCell id="6b3tNRl51yqgzQoA3RTX-148" style="edgeStyle=orthogonalEdgeStyle;rounded=0;orthogonalLoop=1;jettySize=auto;html=1;exitX=0.5;exitY=1;exitDx=0;exitDy=0;entryX=0.5;entryY=0;entryDx=0;entryDy=0;" parent="1" source="6b3tNRl51yqgzQoA3RTX-121" target="6b3tNRl51yqgzQoA3RTX-102" edge="1">
          <mxGeometry relative="1" as="geometry" />
        </mxCell>
        <mxCell id="6b3tNRl51yqgzQoA3RTX-121" value="" style="fontStyle=0;labelPosition=right;verticalLabelPosition=middle;align=left;verticalAlign=middle;spacingLeft=2;" parent="1" vertex="1">
          <mxGeometry x="2517.5" y="1990" width="20" height="20" as="geometry" />
        </mxCell>
        <mxCell id="6b3tNRl51yqgzQoA3RTX-122" value="" style="endArrow=classic;html=1;rounded=0;edgeStyle=orthogonalEdgeStyle;exitX=1;exitY=0.75;exitDx=0;exitDy=0;" parent="1" source="6b3tNRl51yqgzQoA3RTX-64" target="6b3tNRl51yqgzQoA3RTX-121" edge="1">
          <mxGeometry width="50" height="50" relative="1" as="geometry">
            <mxPoint x="2527.5" y="1940" as="sourcePoint" />
            <mxPoint x="2547.5" y="1980" as="targetPoint" />
            <Array as="points">
              <mxPoint x="2290" y="1903" />
              <mxPoint x="2528" y="1903" />
            </Array>
          </mxGeometry>
        </mxCell>
        <mxCell id="6b3tNRl51yqgzQoA3RTX-123" value="Load data" style="edgeLabel;html=1;align=center;verticalAlign=middle;resizable=0;points=[];" parent="6b3tNRl51yqgzQoA3RTX-122" vertex="1" connectable="0">
          <mxGeometry x="0.1665" relative="1" as="geometry">
            <mxPoint x="228" y="47" as="offset" />
          </mxGeometry>
        </mxCell>
        <mxCell id="6b3tNRl51yqgzQoA3RTX-140" style="edgeStyle=orthogonalEdgeStyle;rounded=0;orthogonalLoop=1;jettySize=auto;html=1;exitX=0.75;exitY=1;exitDx=0;exitDy=0;entryX=0.75;entryY=0;entryDx=0;entryDy=0;" parent="1" source="6b3tNRl51yqgzQoA3RTX-95" target="6b3tNRl51yqgzQoA3RTX-127" edge="1">
          <mxGeometry relative="1" as="geometry" />
        </mxCell>
        <mxCell id="6b3tNRl51yqgzQoA3RTX-142" value="Input" style="edgeLabel;html=1;align=center;verticalAlign=middle;resizable=0;points=[];" parent="6b3tNRl51yqgzQoA3RTX-140" vertex="1" connectable="0">
          <mxGeometry x="-0.0853" relative="1" as="geometry">
            <mxPoint as="offset" />
          </mxGeometry>
        </mxCell>
        <mxCell id="6b3tNRl51yqgzQoA3RTX-127" value="«Component»&lt;br&gt;&lt;b&gt;FormPreviewComponent&lt;/b&gt;" style="html=1;dropTarget=0;whiteSpace=wrap;" parent="1" vertex="1">
          <mxGeometry x="2617.5" y="2520" width="180" height="70" as="geometry" />
        </mxCell>
        <mxCell id="6b3tNRl51yqgzQoA3RTX-128" value="" style="shape=module;jettyWidth=8;jettyHeight=4;" parent="6b3tNRl51yqgzQoA3RTX-127" vertex="1">
          <mxGeometry x="1" width="20" height="20" relative="1" as="geometry">
            <mxPoint x="-27" y="7" as="offset" />
          </mxGeometry>
        </mxCell>
        <mxCell id="6b3tNRl51yqgzQoA3RTX-129" value="" style="group" parent="1" vertex="1" connectable="0">
          <mxGeometry x="2510" y="2680" width="160" height="70" as="geometry" />
        </mxCell>
        <mxCell id="6b3tNRl51yqgzQoA3RTX-130" value="«artifact»&lt;br&gt;&lt;b&gt;User Interaction&lt;/b&gt;" style="html=1;align=center;verticalAlign=middle;dashed=0;whiteSpace=wrap;" parent="6b3tNRl51yqgzQoA3RTX-129" vertex="1">
          <mxGeometry width="160" height="70" as="geometry" />
        </mxCell>
        <mxCell id="6b3tNRl51yqgzQoA3RTX-131" value="" style="endArrow=classic;html=1;rounded=0;edgeStyle=orthogonalEdgeStyle;entryX=0.25;entryY=1;entryDx=0;entryDy=0;" parent="1" source="6b3tNRl51yqgzQoA3RTX-130" target="6b3tNRl51yqgzQoA3RTX-127" edge="1">
          <mxGeometry width="50" height="50" relative="1" as="geometry">
            <mxPoint x="2680" y="2580" as="sourcePoint" />
            <mxPoint x="2730" y="2530" as="targetPoint" />
          </mxGeometry>
        </mxCell>
        <mxCell id="6b3tNRl51yqgzQoA3RTX-132" value="User changes form data" style="edgeLabel;html=1;align=center;verticalAlign=middle;resizable=0;points=[];" parent="6b3tNRl51yqgzQoA3RTX-131" vertex="1" connectable="0">
          <mxGeometry x="0.0424" y="1" relative="1" as="geometry">
            <mxPoint as="offset" />
          </mxGeometry>
        </mxCell>
        <mxCell id="6b3tNRl51yqgzQoA3RTX-161" style="edgeStyle=orthogonalEdgeStyle;rounded=0;orthogonalLoop=1;jettySize=auto;html=1;exitX=1;exitY=0.5;exitDx=0;exitDy=0;entryX=0;entryY=0.5;entryDx=0;entryDy=0;" parent="1" source="6b3tNRl51yqgzQoA3RTX-159" target="6b3tNRl51yqgzQoA3RTX-7" edge="1">
          <mxGeometry relative="1" as="geometry">
            <mxPoint x="1490" y="2115" as="targetPoint" />
          </mxGeometry>
        </mxCell>
        <mxCell id="6b3tNRl51yqgzQoA3RTX-159" value="" style="fontStyle=0;labelPosition=right;verticalLabelPosition=middle;align=left;verticalAlign=middle;spacingLeft=2;" parent="1" vertex="1">
          <mxGeometry x="1400" y="2105" width="20" height="20" as="geometry" />
        </mxCell>
        <mxCell id="6b3tNRl51yqgzQoA3RTX-164" value="" style="fontStyle=0;labelPosition=right;verticalLabelPosition=middle;align=left;verticalAlign=middle;spacingLeft=2;" parent="1" vertex="1">
          <mxGeometry x="2750" y="1990" width="20" height="20" as="geometry" />
        </mxCell>
        <mxCell id="6b3tNRl51yqgzQoA3RTX-166" style="edgeStyle=orthogonalEdgeStyle;rounded=0;orthogonalLoop=1;jettySize=auto;html=1;exitX=0.25;exitY=0;exitDx=0;exitDy=0;entryX=0.25;entryY=1;entryDx=0;entryDy=0;" parent="1" source="6b3tNRl51yqgzQoA3RTX-1" target="6b3tNRl51yqgzQoA3RTX-3" edge="1">
          <mxGeometry relative="1" as="geometry">
            <mxPoint x="1850" y="2520" as="sourcePoint" />
            <mxPoint x="1850" y="2430" as="targetPoint" />
          </mxGeometry>
        </mxCell>
        <mxCell id="6b3tNRl51yqgzQoA3RTX-167" value="Output" style="edgeLabel;html=1;align=center;verticalAlign=middle;resizable=0;points=[];" parent="6b3tNRl51yqgzQoA3RTX-166" vertex="1" connectable="0">
          <mxGeometry x="0.0924" relative="1" as="geometry">
            <mxPoint as="offset" />
          </mxGeometry>
        </mxCell>
        <mxCell id="6b3tNRl51yqgzQoA3RTX-168" style="edgeStyle=orthogonalEdgeStyle;rounded=0;orthogonalLoop=1;jettySize=auto;html=1;exitX=0.75;exitY=1;exitDx=0;exitDy=0;entryX=0.75;entryY=0;entryDx=0;entryDy=0;" parent="1" source="6b3tNRl51yqgzQoA3RTX-3" target="6b3tNRl51yqgzQoA3RTX-1" edge="1">
          <mxGeometry relative="1" as="geometry">
            <mxPoint x="1940" y="2430" as="sourcePoint" />
            <mxPoint x="1940" y="2520" as="targetPoint" />
          </mxGeometry>
        </mxCell>
        <mxCell id="6b3tNRl51yqgzQoA3RTX-169" value="Input" style="edgeLabel;html=1;align=center;verticalAlign=middle;resizable=0;points=[];" parent="6b3tNRl51yqgzQoA3RTX-168" vertex="1" connectable="0">
          <mxGeometry x="-0.0853" relative="1" as="geometry">
            <mxPoint as="offset" />
          </mxGeometry>
        </mxCell>
        <mxCell id="6b3tNRl51yqgzQoA3RTX-172" value="" style="group" parent="1" vertex="1" connectable="0">
          <mxGeometry x="2930" y="2360" width="160" height="70" as="geometry" />
        </mxCell>
        <mxCell id="6b3tNRl51yqgzQoA3RTX-173" value="«artifact»&lt;br&gt;&lt;b&gt;settings.json&lt;/b&gt;" style="html=1;align=center;verticalAlign=middle;dashed=0;whiteSpace=wrap;" parent="6b3tNRl51yqgzQoA3RTX-172" vertex="1">
          <mxGeometry width="160" height="70" as="geometry" />
        </mxCell>
        <mxCell id="6b3tNRl51yqgzQoA3RTX-174" value="" style="html=1;outlineConnect=0;whiteSpace=wrap;shape=mxgraph.archimate3.artifact;" parent="6b3tNRl51yqgzQoA3RTX-172" vertex="1">
          <mxGeometry x="141.66999999999996" y="5" width="13.33" height="20" as="geometry" />
        </mxCell>
        <mxCell id="6b3tNRl51yqgzQoA3RTX-178" value="" style="group" parent="1" vertex="1" connectable="0">
          <mxGeometry x="2750" y="2680" width="160" height="70" as="geometry" />
        </mxCell>
        <mxCell id="6b3tNRl51yqgzQoA3RTX-179" value="«artifact»&lt;br&gt;&lt;b&gt;settings.json&lt;/b&gt;" style="html=1;align=center;verticalAlign=middle;dashed=0;whiteSpace=wrap;" parent="6b3tNRl51yqgzQoA3RTX-178" vertex="1">
          <mxGeometry width="160" height="70" as="geometry" />
        </mxCell>
        <mxCell id="6b3tNRl51yqgzQoA3RTX-180" style="edgeStyle=orthogonalEdgeStyle;rounded=0;orthogonalLoop=1;jettySize=auto;html=1;entryX=0.75;entryY=1;entryDx=0;entryDy=0;" parent="1" source="6b3tNRl51yqgzQoA3RTX-179" target="6b3tNRl51yqgzQoA3RTX-127" edge="1">
          <mxGeometry relative="1" as="geometry" />
        </mxCell>
        <mxCell id="6b3tNRl51yqgzQoA3RTX-181" value="Import&amp;nbsp;" style="edgeLabel;html=1;align=center;verticalAlign=middle;resizable=0;points=[];" parent="6b3tNRl51yqgzQoA3RTX-180" vertex="1" connectable="0">
          <mxGeometry x="0.0687" relative="1" as="geometry">
            <mxPoint as="offset" />
          </mxGeometry>
        </mxCell>
        <mxCell id="9eyt7Mf1LLAKGoSY_mxJ-4" value="«component»&lt;br&gt;&lt;b&gt;FormDataCreateService&lt;/b&gt;" style="html=1;dropTarget=0;whiteSpace=wrap;" parent="1" vertex="1">
          <mxGeometry x="2855" y="702.5" width="200" height="80" as="geometry" />
        </mxCell>
        <mxCell id="9eyt7Mf1LLAKGoSY_mxJ-5" value="" style="shape=module;jettyWidth=8;jettyHeight=4;" parent="9eyt7Mf1LLAKGoSY_mxJ-4" vertex="1">
          <mxGeometry x="1" width="20" height="20" relative="1" as="geometry">
            <mxPoint x="-27" y="7" as="offset" />
          </mxGeometry>
        </mxCell>
        <mxCell id="9eyt7Mf1LLAKGoSY_mxJ-6" value="TS Interface" style="shape=providedRequiredInterface;html=1;verticalLabelPosition=bottom;sketch=0;" parent="1" vertex="1">
          <mxGeometry x="2945" y="590" width="20" height="20" as="geometry" />
        </mxCell>
        <mxCell id="9eyt7Mf1LLAKGoSY_mxJ-7" value="" style="endArrow=none;html=1;rounded=0;entryX=0;entryY=0.5;entryDx=0;entryDy=0;entryPerimeter=0;" parent="1" source="9eyt7Mf1LLAKGoSY_mxJ-2" target="9eyt7Mf1LLAKGoSY_mxJ-6" edge="1">
          <mxGeometry width="50" height="50" relative="1" as="geometry">
            <mxPoint x="2480" y="510" as="sourcePoint" />
            <mxPoint x="2500" y="530" as="targetPoint" />
          </mxGeometry>
        </mxCell>
        <mxCell id="9eyt7Mf1LLAKGoSY_mxJ-8" value="" style="endArrow=none;html=1;rounded=0;exitX=1;exitY=0.5;exitDx=0;exitDy=0;exitPerimeter=0;" parent="1" source="9eyt7Mf1LLAKGoSY_mxJ-6" target="9eyt7Mf1LLAKGoSY_mxJ-4" edge="1">
          <mxGeometry width="50" height="50" relative="1" as="geometry">
            <mxPoint x="2817.5" y="529.94" as="sourcePoint" />
            <mxPoint x="2857.5" y="605" as="targetPoint" />
          </mxGeometry>
        </mxCell>
        <mxCell id="9eyt7Mf1LLAKGoSY_mxJ-36" value="FormData" style="shape=providedRequiredInterface;html=1;verticalLabelPosition=bottom;sketch=0;" parent="1" vertex="1">
          <mxGeometry x="3187.5" y="600" width="20" height="20" as="geometry" />
        </mxCell>
        <mxCell id="9eyt7Mf1LLAKGoSY_mxJ-37" value="" style="endArrow=none;html=1;rounded=0;entryX=0;entryY=0.5;entryDx=0;entryDy=0;entryPerimeter=0;" parent="1" source="9eyt7Mf1LLAKGoSY_mxJ-4" target="9eyt7Mf1LLAKGoSY_mxJ-36" edge="1">
          <mxGeometry width="50" height="50" relative="1" as="geometry">
            <mxPoint x="3187.5" y="610" as="sourcePoint" />
            <mxPoint x="3207.5" y="630" as="targetPoint" />
          </mxGeometry>
        </mxCell>
        <mxCell id="9eyt7Mf1LLAKGoSY_mxJ-38" value="" style="endArrow=none;html=1;rounded=0;exitX=1;exitY=0.5;exitDx=0;exitDy=0;exitPerimeter=0;" parent="1" source="9eyt7Mf1LLAKGoSY_mxJ-36" target="9eyt7Mf1LLAKGoSY_mxJ-39" edge="1">
          <mxGeometry width="50" height="50" relative="1" as="geometry">
            <mxPoint x="3207.5" y="609.94" as="sourcePoint" />
            <mxPoint x="3247.5" y="609.94" as="targetPoint" />
          </mxGeometry>
        </mxCell>
        <mxCell id="9eyt7Mf1LLAKGoSY_mxJ-39" value="«component»&lt;br&gt;&lt;b&gt;FormDataStore: AbstractStore&lt;/b&gt;" style="html=1;dropTarget=0;whiteSpace=wrap;" parent="1" vertex="1">
          <mxGeometry x="3257.5" y="570" width="160" height="80" as="geometry" />
        </mxCell>
        <mxCell id="9eyt7Mf1LLAKGoSY_mxJ-40" value="" style="shape=module;jettyWidth=8;jettyHeight=4;" parent="9eyt7Mf1LLAKGoSY_mxJ-39" vertex="1">
          <mxGeometry x="1" width="20" height="20" relative="1" as="geometry">
            <mxPoint x="-27" y="7" as="offset" />
          </mxGeometry>
        </mxCell>
        <mxCell id="9eyt7Mf1LLAKGoSY_mxJ-43" value="«component»&lt;br&gt;&lt;b&gt;FormView&lt;/b&gt;" style="html=1;dropTarget=0;whiteSpace=wrap;" parent="1" vertex="1">
          <mxGeometry x="3417.5" y="690" width="160" height="80" as="geometry" />
        </mxCell>
        <mxCell id="9eyt7Mf1LLAKGoSY_mxJ-44" value="" style="shape=module;jettyWidth=8;jettyHeight=4;" parent="9eyt7Mf1LLAKGoSY_mxJ-43" vertex="1">
          <mxGeometry x="1" width="20" height="20" relative="1" as="geometry">
            <mxPoint x="-27" y="7" as="offset" />
          </mxGeometry>
        </mxCell>
        <mxCell id="9eyt7Mf1LLAKGoSY_mxJ-63" value="" style="shape=providedRequiredInterface;html=1;verticalLabelPosition=bottom;sketch=0;direction=east;" parent="1" vertex="1">
          <mxGeometry x="3467.5" y="600" width="20" height="20" as="geometry" />
        </mxCell>
        <mxCell id="9eyt7Mf1LLAKGoSY_mxJ-64" value="" style="endArrow=none;html=1;rounded=0;entryX=0;entryY=0.5;entryDx=0;entryDy=0;entryPerimeter=0;exitX=1;exitY=0.5;exitDx=0;exitDy=0;" parent="1" source="9eyt7Mf1LLAKGoSY_mxJ-39" target="9eyt7Mf1LLAKGoSY_mxJ-63" edge="1">
          <mxGeometry width="50" height="50" relative="1" as="geometry">
            <mxPoint x="3297.5" y="730" as="sourcePoint" />
            <mxPoint x="3227.5" y="800" as="targetPoint" />
          </mxGeometry>
        </mxCell>
        <mxCell id="9eyt7Mf1LLAKGoSY_mxJ-66" value="" style="shape=providedRequiredInterface;html=1;verticalLabelPosition=bottom;sketch=0;direction=west;align=center;" parent="1" vertex="1">
          <mxGeometry x="3928.5" y="600" width="20" height="20" as="geometry" />
        </mxCell>
        <mxCell id="9eyt7Mf1LLAKGoSY_mxJ-67" value="" style="endArrow=none;html=1;rounded=0;entryX=0;entryY=0.5;entryDx=0;entryDy=0;entryPerimeter=0;exitX=0;exitY=0.5;exitDx=0;exitDy=0;" parent="1" source="9eyt7Mf1LLAKGoSY_mxJ-96" target="9eyt7Mf1LLAKGoSY_mxJ-66" edge="1">
          <mxGeometry width="50" height="50" relative="1" as="geometry">
            <mxPoint x="3996" y="610" as="sourcePoint" />
            <mxPoint x="3886" y="620" as="targetPoint" />
          </mxGeometry>
        </mxCell>
        <mxCell id="9eyt7Mf1LLAKGoSY_mxJ-68" value="" style="endArrow=none;html=1;rounded=0;exitX=1;exitY=0.5;exitDx=0;exitDy=0;exitPerimeter=0;edgeStyle=orthogonalEdgeStyle;entryX=0.75;entryY=0;entryDx=0;entryDy=0;" parent="1" source="9eyt7Mf1LLAKGoSY_mxJ-66" target="9eyt7Mf1LLAKGoSY_mxJ-75" edge="1">
          <mxGeometry width="50" height="50" relative="1" as="geometry">
            <mxPoint x="3697.5" y="699.94" as="sourcePoint" />
            <mxPoint x="3767.5" y="730" as="targetPoint" />
            <Array as="points">
              <mxPoint x="3827.5" y="610" />
            </Array>
          </mxGeometry>
        </mxCell>
        <mxCell id="9eyt7Mf1LLAKGoSY_mxJ-74" value="" style="group" parent="1" vertex="1" connectable="0">
          <mxGeometry x="3707.5" y="690" width="160" height="80" as="geometry" />
        </mxCell>
        <mxCell id="9eyt7Mf1LLAKGoSY_mxJ-75" value="«Service»&lt;br&gt;&lt;b&gt;SourceCodeCreateService&lt;/b&gt;" style="html=1;align=center;verticalAlign=middle;dashed=0;whiteSpace=wrap;" parent="9eyt7Mf1LLAKGoSY_mxJ-74" vertex="1">
          <mxGeometry width="160" height="80" as="geometry" />
        </mxCell>
        <mxCell id="9eyt7Mf1LLAKGoSY_mxJ-91" value="" style="group" parent="1" vertex="1" connectable="0">
          <mxGeometry x="3707.5" y="850" width="160" height="70" as="geometry" />
        </mxCell>
        <mxCell id="9eyt7Mf1LLAKGoSY_mxJ-92" value="«artifact»&lt;br&gt;&lt;b&gt;Generated Form&lt;/b&gt;" style="html=1;align=center;verticalAlign=middle;dashed=0;whiteSpace=wrap;" parent="9eyt7Mf1LLAKGoSY_mxJ-91" vertex="1">
          <mxGeometry width="160" height="70" as="geometry" />
        </mxCell>
        <mxCell id="9eyt7Mf1LLAKGoSY_mxJ-94" style="edgeStyle=orthogonalEdgeStyle;rounded=0;orthogonalLoop=1;jettySize=auto;html=1;" parent="1" source="9eyt7Mf1LLAKGoSY_mxJ-75" target="9eyt7Mf1LLAKGoSY_mxJ-92" edge="1">
          <mxGeometry relative="1" as="geometry" />
        </mxCell>
        <mxCell id="9eyt7Mf1LLAKGoSY_mxJ-95" value="creates" style="edgeLabel;html=1;align=center;verticalAlign=middle;resizable=0;points=[];" parent="9eyt7Mf1LLAKGoSY_mxJ-94" vertex="1" connectable="0">
          <mxGeometry x="-0.11" relative="1" as="geometry">
            <mxPoint as="offset" />
          </mxGeometry>
        </mxCell>
        <mxCell id="a9wcAX0pc3dKkxditSkH-39" style="edgeStyle=orthogonalEdgeStyle;rounded=0;orthogonalLoop=1;jettySize=auto;html=1;exitX=0.5;exitY=0;exitDx=0;exitDy=0;entryX=0.5;entryY=1;entryDx=0;entryDy=0;" parent="1" source="9eyt7Mf1LLAKGoSY_mxJ-96" target="9eyt7Mf1LLAKGoSY_mxJ-105" edge="1">
          <mxGeometry relative="1" as="geometry" />
        </mxCell>
        <mxCell id="a9wcAX0pc3dKkxditSkH-40" value="Save form data when state updates" style="edgeLabel;html=1;align=center;verticalAlign=middle;resizable=0;points=[];" parent="a9wcAX0pc3dKkxditSkH-39" vertex="1" connectable="0">
          <mxGeometry x="0.1333" y="1" relative="1" as="geometry">
            <mxPoint x="1" y="1" as="offset" />
          </mxGeometry>
        </mxCell>
        <mxCell id="9eyt7Mf1LLAKGoSY_mxJ-96" value="«component»&lt;br&gt;&lt;b&gt;SettingsDataStore: AbstractStore&lt;/b&gt;" style="html=1;dropTarget=0;whiteSpace=wrap;" parent="1" vertex="1">
          <mxGeometry x="4013" y="570" width="160" height="80" as="geometry" />
        </mxCell>
        <mxCell id="9eyt7Mf1LLAKGoSY_mxJ-97" value="" style="shape=module;jettyWidth=8;jettyHeight=4;" parent="9eyt7Mf1LLAKGoSY_mxJ-96" vertex="1">
          <mxGeometry x="1" width="20" height="20" relative="1" as="geometry">
            <mxPoint x="-27" y="7" as="offset" />
          </mxGeometry>
        </mxCell>
        <mxCell id="9eyt7Mf1LLAKGoSY_mxJ-98" value="&lt;b&gt;LocalStorage&lt;/b&gt;" style="html=1;dropTarget=0;whiteSpace=wrap;" parent="1" vertex="1">
          <mxGeometry x="3657.5" y="130" width="180" height="70" as="geometry" />
        </mxCell>
        <mxCell id="9eyt7Mf1LLAKGoSY_mxJ-99" value="" style="shape=providedRequiredInterface;html=1;verticalLabelPosition=bottom;sketch=0;rotation=90;flipH=0;" parent="1" vertex="1">
          <mxGeometry x="3737.5" y="245" width="20" height="20" as="geometry" />
        </mxCell>
        <mxCell id="9eyt7Mf1LLAKGoSY_mxJ-100" value="" style="endArrow=none;html=1;rounded=0;" parent="1" source="9eyt7Mf1LLAKGoSY_mxJ-98" target="9eyt7Mf1LLAKGoSY_mxJ-99" edge="1">
          <mxGeometry width="50" height="50" relative="1" as="geometry">
            <mxPoint x="4147.5" y="100" as="sourcePoint" />
            <mxPoint x="4207.5" y="140" as="targetPoint" />
          </mxGeometry>
        </mxCell>
        <mxCell id="9eyt7Mf1LLAKGoSY_mxJ-101" value="Manage Storage" style="edgeLabel;html=1;align=center;verticalAlign=middle;resizable=0;points=[];" parent="9eyt7Mf1LLAKGoSY_mxJ-100" vertex="1" connectable="0">
          <mxGeometry x="-0.1944" relative="1" as="geometry">
            <mxPoint y="4" as="offset" />
          </mxGeometry>
        </mxCell>
        <mxCell id="9eyt7Mf1LLAKGoSY_mxJ-103" value="" style="endArrow=none;html=1;rounded=0;edgeStyle=orthogonalEdgeStyle;exitX=1;exitY=0.5;exitDx=0;exitDy=0;exitPerimeter=0;entryX=0.5;entryY=0;entryDx=0;entryDy=0;" parent="1" source="9eyt7Mf1LLAKGoSY_mxJ-99" target="9eyt7Mf1LLAKGoSY_mxJ-105" edge="1">
          <mxGeometry width="50" height="50" relative="1" as="geometry">
            <mxPoint x="4187.5" y="240" as="sourcePoint" />
            <mxPoint x="4247.5" y="280" as="targetPoint" />
            <Array as="points">
              <mxPoint x="3747.5" y="320" />
              <mxPoint x="4027.5" y="320" />
            </Array>
          </mxGeometry>
        </mxCell>
        <mxCell id="9eyt7Mf1LLAKGoSY_mxJ-111" value="" style="endArrow=none;html=1;rounded=0;entryX=0;entryY=0.5;entryDx=0;entryDy=0;entryPerimeter=0;edgeStyle=orthogonalEdgeStyle;" parent="1" source="9eyt7Mf1LLAKGoSY_mxJ-108" target="9eyt7Mf1LLAKGoSY_mxJ-36" edge="1">
          <mxGeometry width="50" height="50" relative="1" as="geometry">
            <mxPoint x="3667.5" y="500" as="sourcePoint" />
            <mxPoint x="3224.166666666667" y="430" as="targetPoint" />
            <Array as="points">
              <mxPoint x="3157.5" y="410" />
              <mxPoint x="3157.5" y="610" />
            </Array>
          </mxGeometry>
        </mxCell>
        <mxCell id="9eyt7Mf1LLAKGoSY_mxJ-118" value="Get cached form data" style="edgeLabel;html=1;align=center;verticalAlign=middle;resizable=0;points=[];" parent="9eyt7Mf1LLAKGoSY_mxJ-111" vertex="1" connectable="0">
          <mxGeometry x="-0.1743" y="1" relative="1" as="geometry">
            <mxPoint y="37" as="offset" />
          </mxGeometry>
        </mxCell>
        <mxCell id="9eyt7Mf1LLAKGoSY_mxJ-108" value="«Service»&lt;br&gt;&lt;b&gt;FormDataStorageService:&lt;br&gt;StorageService&lt;br&gt;&lt;/b&gt;" style="html=1;dropTarget=0;whiteSpace=wrap;" parent="1" vertex="1">
          <mxGeometry x="3257.5" y="370" width="160" height="80" as="geometry" />
        </mxCell>
        <mxCell id="9eyt7Mf1LLAKGoSY_mxJ-109" value="" style="shape=module;jettyWidth=8;jettyHeight=4;" parent="9eyt7Mf1LLAKGoSY_mxJ-108" vertex="1">
          <mxGeometry x="1" width="20" height="20" relative="1" as="geometry">
            <mxPoint x="-27" y="7" as="offset" />
          </mxGeometry>
        </mxCell>
        <mxCell id="9eyt7Mf1LLAKGoSY_mxJ-127" value="" style="endArrow=none;html=1;rounded=0;exitX=0.5;exitY=0;exitDx=0;exitDy=0;edgeStyle=orthogonalEdgeStyle;entryX=1;entryY=0.5;entryDx=0;entryDy=0;entryPerimeter=0;" parent="1" source="9eyt7Mf1LLAKGoSY_mxJ-108" target="9eyt7Mf1LLAKGoSY_mxJ-99" edge="1">
          <mxGeometry width="50" height="50" relative="1" as="geometry">
            <mxPoint x="3407.5" y="270" as="sourcePoint" />
            <mxPoint x="3455.5" y="270" as="targetPoint" />
            <Array as="points">
              <mxPoint x="3377.5" y="320" />
              <mxPoint x="3747.5" y="320" />
            </Array>
          </mxGeometry>
        </mxCell>
        <mxCell id="9eyt7Mf1LLAKGoSY_mxJ-105" value="«Service»&lt;br&gt;&lt;b&gt;SettingsDataStorageService:&lt;br&gt;StorageService&lt;br&gt;&lt;/b&gt;" style="html=1;dropTarget=0;whiteSpace=wrap;" parent="1" vertex="1">
          <mxGeometry x="3998.5" y="370" width="189" height="80" as="geometry" />
        </mxCell>
        <mxCell id="9eyt7Mf1LLAKGoSY_mxJ-106" value="" style="shape=module;jettyWidth=8;jettyHeight=4;" parent="9eyt7Mf1LLAKGoSY_mxJ-105" vertex="1">
          <mxGeometry x="1" width="20" height="20" relative="1" as="geometry">
            <mxPoint x="-27" y="7" as="offset" />
          </mxGeometry>
        </mxCell>
        <mxCell id="9eyt7Mf1LLAKGoSY_mxJ-130" value="SettingsData" style="shape=providedRequiredInterface;html=1;verticalLabelPosition=bottom;sketch=0;direction=west;" parent="1" vertex="1">
          <mxGeometry x="4225" y="600" width="20" height="20" as="geometry" />
        </mxCell>
        <mxCell id="9eyt7Mf1LLAKGoSY_mxJ-131" value="" style="endArrow=none;html=1;rounded=0;entryX=0;entryY=0.5;entryDx=0;entryDy=0;entryPerimeter=0;exitX=1;exitY=0.5;exitDx=0;exitDy=0;edgeStyle=orthogonalEdgeStyle;" parent="1" source="9eyt7Mf1LLAKGoSY_mxJ-105" target="9eyt7Mf1LLAKGoSY_mxJ-130" edge="1">
          <mxGeometry width="50" height="50" relative="1" as="geometry">
            <mxPoint x="4106" y="510" as="sourcePoint" />
            <mxPoint x="4126" y="530" as="targetPoint" />
            <Array as="points">
              <mxPoint x="4267.5" y="410" />
              <mxPoint x="4267.5" y="610" />
            </Array>
          </mxGeometry>
        </mxCell>
        <mxCell id="9eyt7Mf1LLAKGoSY_mxJ-135" value="Get cached settings data" style="edgeLabel;html=1;align=center;verticalAlign=middle;resizable=0;points=[];" parent="9eyt7Mf1LLAKGoSY_mxJ-131" vertex="1" connectable="0">
          <mxGeometry x="0.3067" relative="1" as="geometry">
            <mxPoint x="-3" y="3" as="offset" />
          </mxGeometry>
        </mxCell>
        <mxCell id="9eyt7Mf1LLAKGoSY_mxJ-132" value="" style="endArrow=none;html=1;rounded=0;entryX=1;entryY=0.5;entryDx=0;entryDy=0;exitX=1;exitY=0.5;exitDx=0;exitDy=0;exitPerimeter=0;" parent="1" source="9eyt7Mf1LLAKGoSY_mxJ-130" target="9eyt7Mf1LLAKGoSY_mxJ-96" edge="1">
          <mxGeometry width="50" height="50" relative="1" as="geometry">
            <mxPoint x="4338.5" y="569.94" as="sourcePoint" />
            <mxPoint x="4348.5" y="630" as="targetPoint" />
          </mxGeometry>
        </mxCell>
        <mxCell id="9eyt7Mf1LLAKGoSY_mxJ-133" value="«component»&lt;br&gt;&lt;b&gt;SettingsView&lt;/b&gt;" style="html=1;dropTarget=0;whiteSpace=wrap;" parent="1" vertex="1">
          <mxGeometry x="3998.5" y="730" width="160" height="80" as="geometry" />
        </mxCell>
        <mxCell id="9eyt7Mf1LLAKGoSY_mxJ-134" value="" style="shape=module;jettyWidth=8;jettyHeight=4;" parent="9eyt7Mf1LLAKGoSY_mxJ-133" vertex="1">
          <mxGeometry x="1" width="20" height="20" relative="1" as="geometry">
            <mxPoint x="-27" y="7" as="offset" />
          </mxGeometry>
        </mxCell>
        <mxCell id="9eyt7Mf1LLAKGoSY_mxJ-141" value="«artifact»&lt;br&gt;&lt;b&gt;settings.json&lt;/b&gt;" style="html=1;dropTarget=0;whiteSpace=wrap;" parent="1" vertex="1">
          <mxGeometry x="4377.5" y="800" width="160" height="60" as="geometry" />
        </mxCell>
        <mxCell id="9eyt7Mf1LLAKGoSY_mxJ-142" value="" style="shape=module;jettyWidth=8;jettyHeight=4;" parent="9eyt7Mf1LLAKGoSY_mxJ-141" vertex="1">
          <mxGeometry x="1" width="20" height="20" relative="1" as="geometry">
            <mxPoint x="-27" y="7" as="offset" />
          </mxGeometry>
        </mxCell>
        <mxCell id="9eyt7Mf1LLAKGoSY_mxJ-146" value="" style="endArrow=none;html=1;rounded=0;exitX=1;exitY=0.5;exitDx=0;exitDy=0;edgeStyle=orthogonalEdgeStyle;exitPerimeter=0;entryX=0;entryY=0.5;entryDx=0;entryDy=0;" parent="1" source="9eyt7Mf1LLAKGoSY_mxJ-66" target="9eyt7Mf1LLAKGoSY_mxJ-133" edge="1">
          <mxGeometry width="50" height="50" relative="1" as="geometry">
            <mxPoint x="3886" y="730" as="sourcePoint" />
            <mxPoint x="3934" y="730" as="targetPoint" />
            <Array as="points">
              <mxPoint x="3917.5" y="610" />
              <mxPoint x="3917.5" y="770" />
            </Array>
          </mxGeometry>
        </mxCell>
        <mxCell id="9eyt7Mf1LLAKGoSY_mxJ-147" value="SettingsData as JSON" style="shape=providedRequiredInterface;html=1;verticalLabelPosition=bottom;sketch=0;direction=west;" parent="1" vertex="1">
          <mxGeometry x="4278.5" y="820" width="20" height="20" as="geometry" />
        </mxCell>
        <mxCell id="9eyt7Mf1LLAKGoSY_mxJ-148" value="" style="endArrow=none;html=1;rounded=0;entryX=0;entryY=0.5;entryDx=0;entryDy=0;entryPerimeter=0;exitX=0;exitY=0.5;exitDx=0;exitDy=0;edgeStyle=orthogonalEdgeStyle;" parent="1" source="9eyt7Mf1LLAKGoSY_mxJ-141" target="9eyt7Mf1LLAKGoSY_mxJ-147" edge="1">
          <mxGeometry width="50" height="50" relative="1" as="geometry">
            <mxPoint x="4438.5" y="1145" as="sourcePoint" />
            <mxPoint x="4458.5" y="1165" as="targetPoint" />
            <Array as="points">
              <mxPoint x="4341" y="830" />
              <mxPoint x="4341" y="830" />
            </Array>
          </mxGeometry>
        </mxCell>
        <mxCell id="9eyt7Mf1LLAKGoSY_mxJ-149" value="" style="endArrow=none;html=1;rounded=0;exitX=1;exitY=0.5;exitDx=0;exitDy=0;exitPerimeter=0;entryX=1;entryY=0.75;entryDx=0;entryDy=0;edgeStyle=orthogonalEdgeStyle;" parent="1" source="9eyt7Mf1LLAKGoSY_mxJ-147" target="9eyt7Mf1LLAKGoSY_mxJ-133" edge="1">
          <mxGeometry width="50" height="50" relative="1" as="geometry">
            <mxPoint x="4411" y="869.3700000000001" as="sourcePoint" />
            <mxPoint x="4221" y="864.4300000000001" as="targetPoint" />
            <Array as="points">
              <mxPoint x="4231" y="830" />
              <mxPoint x="4231" y="790" />
            </Array>
          </mxGeometry>
        </mxCell>
        <mxCell id="a9wcAX0pc3dKkxditSkH-32" value="Import" style="edgeLabel;html=1;align=center;verticalAlign=middle;resizable=0;points=[];" parent="9eyt7Mf1LLAKGoSY_mxJ-149" vertex="1" connectable="0">
          <mxGeometry x="0.4846" y="-1" relative="1" as="geometry">
            <mxPoint y="11" as="offset" />
          </mxGeometry>
        </mxCell>
        <mxCell id="9eyt7Mf1LLAKGoSY_mxJ-150" value="SettingsData as JSON" style="shape=providedRequiredInterface;html=1;verticalLabelPosition=bottom;sketch=0;direction=east;" parent="1" vertex="1">
          <mxGeometry x="4278.5" y="740" width="20" height="20" as="geometry" />
        </mxCell>
        <mxCell id="9eyt7Mf1LLAKGoSY_mxJ-151" value="" style="endArrow=none;html=1;rounded=0;entryX=0;entryY=0.5;entryDx=0;entryDy=0;entryPerimeter=0;exitX=1;exitY=0.25;exitDx=0;exitDy=0;" parent="1" source="9eyt7Mf1LLAKGoSY_mxJ-133" target="9eyt7Mf1LLAKGoSY_mxJ-150" edge="1">
          <mxGeometry width="50" height="50" relative="1" as="geometry">
            <mxPoint x="4408.5" y="770" as="sourcePoint" />
            <mxPoint x="4558.5" y="1010" as="targetPoint" />
          </mxGeometry>
        </mxCell>
        <mxCell id="9eyt7Mf1LLAKGoSY_mxJ-163" value="Export" style="edgeLabel;html=1;align=center;verticalAlign=middle;resizable=0;points=[];" parent="9eyt7Mf1LLAKGoSY_mxJ-151" vertex="1" connectable="0">
          <mxGeometry x="-0.1881" y="-2" relative="1" as="geometry">
            <mxPoint x="-6" y="-12" as="offset" />
          </mxGeometry>
        </mxCell>
        <mxCell id="9eyt7Mf1LLAKGoSY_mxJ-152" value="" style="endArrow=none;html=1;rounded=0;exitX=1;exitY=0.5;exitDx=0;exitDy=0;exitPerimeter=0;" parent="1" source="9eyt7Mf1LLAKGoSY_mxJ-150" target="9eyt7Mf1LLAKGoSY_mxJ-156" edge="1">
          <mxGeometry width="50" height="50" relative="1" as="geometry">
            <mxPoint x="4561" y="899.94" as="sourcePoint" />
            <mxPoint x="4361" y="840" as="targetPoint" />
          </mxGeometry>
        </mxCell>
        <mxCell id="9eyt7Mf1LLAKGoSY_mxJ-156" value="«artifact»&lt;br&gt;&lt;b&gt;settings.json&lt;/b&gt;" style="html=1;dropTarget=0;whiteSpace=wrap;" parent="1" vertex="1">
          <mxGeometry x="4377.5" y="720" width="160" height="60" as="geometry" />
        </mxCell>
        <mxCell id="9eyt7Mf1LLAKGoSY_mxJ-157" value="" style="shape=module;jettyWidth=8;jettyHeight=4;" parent="9eyt7Mf1LLAKGoSY_mxJ-156" vertex="1">
          <mxGeometry x="1" width="20" height="20" relative="1" as="geometry">
            <mxPoint x="-27" y="7" as="offset" />
          </mxGeometry>
        </mxCell>
        <mxCell id="a9wcAX0pc3dKkxditSkH-2" value="«component»&lt;br&gt;&lt;b&gt;FormComponent&lt;/b&gt;" style="html=1;dropTarget=0;whiteSpace=wrap;" parent="1" vertex="1">
          <mxGeometry x="3417.5" y="890" width="160" height="80" as="geometry" />
        </mxCell>
        <mxCell id="a9wcAX0pc3dKkxditSkH-3" value="" style="shape=module;jettyWidth=8;jettyHeight=4;" parent="a9wcAX0pc3dKkxditSkH-2" vertex="1">
          <mxGeometry x="1" width="20" height="20" relative="1" as="geometry">
            <mxPoint x="-27" y="7" as="offset" />
          </mxGeometry>
        </mxCell>
        <mxCell id="a9wcAX0pc3dKkxditSkH-6" value="" style="shape=providedRequiredInterface;html=1;verticalLabelPosition=bottom;sketch=0;direction=south;" parent="1" vertex="1">
          <mxGeometry x="3527.5" y="840" width="20" height="20" as="geometry" />
        </mxCell>
        <mxCell id="a9wcAX0pc3dKkxditSkH-7" value="" style="endArrow=none;html=1;rounded=0;entryX=0;entryY=0.5;entryDx=0;entryDy=0;entryPerimeter=0;exitX=0.75;exitY=1;exitDx=0;exitDy=0;" parent="1" source="9eyt7Mf1LLAKGoSY_mxJ-43" target="a9wcAX0pc3dKkxditSkH-6" edge="1">
          <mxGeometry width="50" height="50" relative="1" as="geometry">
            <mxPoint x="3067.5" y="970" as="sourcePoint" />
            <mxPoint x="3087.5" y="990" as="targetPoint" />
          </mxGeometry>
        </mxCell>
        <mxCell id="a9wcAX0pc3dKkxditSkH-14" value="Angular Material Form" style="edgeLabel;html=1;align=center;verticalAlign=middle;resizable=0;points=[];" parent="a9wcAX0pc3dKkxditSkH-7" vertex="1" connectable="0">
          <mxGeometry x="0.1771" y="2" relative="1" as="geometry">
            <mxPoint x="-2" as="offset" />
          </mxGeometry>
        </mxCell>
        <mxCell id="a9wcAX0pc3dKkxditSkH-8" value="" style="endArrow=none;html=1;rounded=0;entryX=0.75;entryY=0;entryDx=0;entryDy=0;exitX=1;exitY=0.5;exitDx=0;exitDy=0;exitPerimeter=0;" parent="1" source="a9wcAX0pc3dKkxditSkH-6" target="a9wcAX0pc3dKkxditSkH-2" edge="1">
          <mxGeometry width="50" height="50" relative="1" as="geometry">
            <mxPoint x="3337.5" y="866.24" as="sourcePoint" />
            <mxPoint x="3377.5" y="866.24" as="targetPoint" />
          </mxGeometry>
        </mxCell>
        <mxCell id="a9wcAX0pc3dKkxditSkH-9" value="" style="shape=providedRequiredInterface;html=1;verticalLabelPosition=bottom;sketch=0;direction=north;" parent="1" vertex="1">
          <mxGeometry x="3447.5" y="840" width="20" height="20" as="geometry" />
        </mxCell>
        <mxCell id="a9wcAX0pc3dKkxditSkH-10" value="" style="endArrow=none;html=1;rounded=0;exitX=0.25;exitY=1;exitDx=0;exitDy=0;entryX=1;entryY=0.5;entryDx=0;entryDy=0;entryPerimeter=0;" parent="1" source="9eyt7Mf1LLAKGoSY_mxJ-43" target="a9wcAX0pc3dKkxditSkH-9" edge="1">
          <mxGeometry width="50" height="50" relative="1" as="geometry">
            <mxPoint x="3237.5" y="910" as="sourcePoint" />
            <mxPoint x="3267.5" y="950" as="targetPoint" />
          </mxGeometry>
        </mxCell>
        <mxCell id="a9wcAX0pc3dKkxditSkH-11" value="" style="endArrow=none;html=1;rounded=0;entryX=0.25;entryY=0;entryDx=0;entryDy=0;exitX=0;exitY=0.5;exitDx=0;exitDy=0;exitPerimeter=0;" parent="1" source="a9wcAX0pc3dKkxditSkH-9" target="a9wcAX0pc3dKkxditSkH-2" edge="1">
          <mxGeometry width="50" height="50" relative="1" as="geometry">
            <mxPoint x="3477.5" y="886.3" as="sourcePoint" />
            <mxPoint x="3447.5" y="926.3" as="targetPoint" />
          </mxGeometry>
        </mxCell>
        <mxCell id="a9wcAX0pc3dKkxditSkH-13" value="Handle user interaction" style="edgeLabel;html=1;align=center;verticalAlign=middle;resizable=0;points=[];" parent="a9wcAX0pc3dKkxditSkH-11" vertex="1" connectable="0">
          <mxGeometry x="-0.2533" y="-2" relative="1" as="geometry">
            <mxPoint x="2" y="1" as="offset" />
          </mxGeometry>
        </mxCell>
        <mxCell id="a9wcAX0pc3dKkxditSkH-17" value="" style="endArrow=none;html=1;rounded=0;entryX=0;entryY=0.75;entryDx=0;entryDy=0;edgeStyle=orthogonalEdgeStyle;exitX=0;exitY=0.5;exitDx=0;exitDy=0;exitPerimeter=0;" parent="1" source="9eyt7Mf1LLAKGoSY_mxJ-36" target="9eyt7Mf1LLAKGoSY_mxJ-43" edge="1">
          <mxGeometry width="50" height="50" relative="1" as="geometry">
            <mxPoint x="3237.44" y="740" as="sourcePoint" />
            <mxPoint x="3107.44" y="830" as="targetPoint" />
            <Array as="points">
              <mxPoint x="3137.5" y="610" />
              <mxPoint x="3137.5" y="750" />
            </Array>
          </mxGeometry>
        </mxCell>
        <mxCell id="a9wcAX0pc3dKkxditSkH-18" value="update form data based on user input" style="edgeLabel;html=1;align=center;verticalAlign=middle;resizable=0;points=[];" parent="a9wcAX0pc3dKkxditSkH-17" vertex="1" connectable="0">
          <mxGeometry x="-0.4176" y="-1" relative="1" as="geometry">
            <mxPoint as="offset" />
          </mxGeometry>
        </mxCell>
        <mxCell id="a9wcAX0pc3dKkxditSkH-19" value="" style="endArrow=none;html=1;rounded=0;exitX=0;exitY=0.5;exitDx=0;exitDy=0;exitPerimeter=0;edgeStyle=orthogonalEdgeStyle;entryX=0.5;entryY=0;entryDx=0;entryDy=0;" parent="1" source="9eyt7Mf1LLAKGoSY_mxJ-130" target="9eyt7Mf1LLAKGoSY_mxJ-133" edge="1">
          <mxGeometry width="50" height="50" relative="1" as="geometry">
            <mxPoint x="4366" y="530" as="sourcePoint" />
            <mxPoint x="4366" y="580" as="targetPoint" />
            <Array as="points">
              <mxPoint x="4287.5" y="610" />
              <mxPoint x="4287.5" y="710" />
              <mxPoint x="4078.5" y="710" />
            </Array>
          </mxGeometry>
        </mxCell>
        <mxCell id="a9wcAX0pc3dKkxditSkH-20" value="update settings data based on user input" style="edgeLabel;html=1;align=center;verticalAlign=middle;resizable=0;points=[];" parent="a9wcAX0pc3dKkxditSkH-19" vertex="1" connectable="0">
          <mxGeometry x="-0.0007" y="-2" relative="1" as="geometry">
            <mxPoint x="23" y="-28" as="offset" />
          </mxGeometry>
        </mxCell>
        <mxCell id="a9wcAX0pc3dKkxditSkH-21" value="«component»&lt;br&gt;&lt;b&gt;SettingsComponent&lt;/b&gt;" style="html=1;dropTarget=0;whiteSpace=wrap;" parent="1" vertex="1">
          <mxGeometry x="3998.5" y="890" width="160" height="80" as="geometry" />
        </mxCell>
        <mxCell id="a9wcAX0pc3dKkxditSkH-22" value="" style="shape=module;jettyWidth=8;jettyHeight=4;" parent="a9wcAX0pc3dKkxditSkH-21" vertex="1">
          <mxGeometry x="1" width="20" height="20" relative="1" as="geometry">
            <mxPoint x="-27" y="7" as="offset" />
          </mxGeometry>
        </mxCell>
        <mxCell id="a9wcAX0pc3dKkxditSkH-23" value="" style="shape=providedRequiredInterface;html=1;verticalLabelPosition=bottom;sketch=0;direction=south;" parent="1" vertex="1">
          <mxGeometry x="4108.5" y="840" width="20" height="20" as="geometry" />
        </mxCell>
        <mxCell id="a9wcAX0pc3dKkxditSkH-24" value="" style="endArrow=none;html=1;rounded=0;entryX=0;entryY=0.5;entryDx=0;entryDy=0;entryPerimeter=0;exitX=0.75;exitY=1;exitDx=0;exitDy=0;" parent="1" source="9eyt7Mf1LLAKGoSY_mxJ-133" target="a9wcAX0pc3dKkxditSkH-23" edge="1">
          <mxGeometry width="50" height="50" relative="1" as="geometry">
            <mxPoint x="4118.5" y="810" as="sourcePoint" />
            <mxPoint x="3718.5" y="990" as="targetPoint" />
          </mxGeometry>
        </mxCell>
        <mxCell id="a9wcAX0pc3dKkxditSkH-25" value="SettingsData" style="edgeLabel;html=1;align=center;verticalAlign=middle;resizable=0;points=[];" parent="a9wcAX0pc3dKkxditSkH-24" vertex="1" connectable="0">
          <mxGeometry x="0.1771" y="2" relative="1" as="geometry">
            <mxPoint x="-2" as="offset" />
          </mxGeometry>
        </mxCell>
        <mxCell id="a9wcAX0pc3dKkxditSkH-26" value="" style="endArrow=none;html=1;rounded=0;entryX=0.75;entryY=0;entryDx=0;entryDy=0;exitX=1;exitY=0.5;exitDx=0;exitDy=0;exitPerimeter=0;" parent="1" source="a9wcAX0pc3dKkxditSkH-23" target="a9wcAX0pc3dKkxditSkH-21" edge="1">
          <mxGeometry width="50" height="50" relative="1" as="geometry">
            <mxPoint x="3918.5" y="866.24" as="sourcePoint" />
            <mxPoint x="4118.5" y="890" as="targetPoint" />
          </mxGeometry>
        </mxCell>
        <mxCell id="a9wcAX0pc3dKkxditSkH-27" value="" style="shape=providedRequiredInterface;html=1;verticalLabelPosition=bottom;sketch=0;direction=north;" parent="1" vertex="1">
          <mxGeometry x="4028.5" y="840" width="20" height="20" as="geometry" />
        </mxCell>
        <mxCell id="a9wcAX0pc3dKkxditSkH-28" value="" style="endArrow=none;html=1;rounded=0;exitX=0.25;exitY=1;exitDx=0;exitDy=0;entryX=1;entryY=0.5;entryDx=0;entryDy=0;entryPerimeter=0;" parent="1" source="9eyt7Mf1LLAKGoSY_mxJ-133" target="a9wcAX0pc3dKkxditSkH-27" edge="1">
          <mxGeometry width="50" height="50" relative="1" as="geometry">
            <mxPoint x="4038.5" y="810" as="sourcePoint" />
            <mxPoint x="3898.5" y="950" as="targetPoint" />
          </mxGeometry>
        </mxCell>
        <mxCell id="a9wcAX0pc3dKkxditSkH-29" value="" style="endArrow=none;html=1;rounded=0;entryX=0.25;entryY=0;entryDx=0;entryDy=0;exitX=0;exitY=0.5;exitDx=0;exitDy=0;exitPerimeter=0;" parent="1" source="a9wcAX0pc3dKkxditSkH-27" target="a9wcAX0pc3dKkxditSkH-21" edge="1">
          <mxGeometry width="50" height="50" relative="1" as="geometry">
            <mxPoint x="4058.5" y="886.3" as="sourcePoint" />
            <mxPoint x="4038.5" y="890" as="targetPoint" />
          </mxGeometry>
        </mxCell>
        <mxCell id="a9wcAX0pc3dKkxditSkH-30" value="Handle user interaction" style="edgeLabel;html=1;align=center;verticalAlign=middle;resizable=0;points=[];" parent="a9wcAX0pc3dKkxditSkH-29" vertex="1" connectable="0">
          <mxGeometry x="-0.2533" y="-2" relative="1" as="geometry">
            <mxPoint x="2" y="1" as="offset" />
          </mxGeometry>
        </mxCell>
        <mxCell id="a9wcAX0pc3dKkxditSkH-34" value="" style="endArrow=none;html=1;rounded=0;edgeStyle=orthogonalEdgeStyle;exitX=1;exitY=0.5;exitDx=0;exitDy=0;exitPerimeter=0;entryX=0.25;entryY=0;entryDx=0;entryDy=0;" parent="1" source="9eyt7Mf1LLAKGoSY_mxJ-63" target="9eyt7Mf1LLAKGoSY_mxJ-75" edge="1">
          <mxGeometry width="50" height="50" relative="1" as="geometry">
            <mxPoint x="3617.4700000000003" y="650" as="sourcePoint" />
            <mxPoint x="3697.5" y="820" as="targetPoint" />
            <Array as="points">
              <mxPoint x="3747.5" y="610" />
            </Array>
          </mxGeometry>
        </mxCell>
        <mxCell id="a9wcAX0pc3dKkxditSkH-35" value="" style="endArrow=none;html=1;rounded=0;exitX=1;exitY=0.5;exitDx=0;exitDy=0;edgeStyle=orthogonalEdgeStyle;exitPerimeter=0;entryX=0.5;entryY=0;entryDx=0;entryDy=0;" parent="1" source="9eyt7Mf1LLAKGoSY_mxJ-63" target="9eyt7Mf1LLAKGoSY_mxJ-43" edge="1">
          <mxGeometry width="50" height="50" relative="1" as="geometry">
            <mxPoint x="3657.5" y="650" as="sourcePoint" />
            <mxPoint x="3705.5" y="650" as="targetPoint" />
          </mxGeometry>
        </mxCell>
        <mxCell id="a9wcAX0pc3dKkxditSkH-36" value="" style="endArrow=classic;html=1;rounded=0;entryX=0.5;entryY=1;entryDx=0;entryDy=0;exitX=0.5;exitY=0;exitDx=0;exitDy=0;" parent="1" source="9eyt7Mf1LLAKGoSY_mxJ-39" target="9eyt7Mf1LLAKGoSY_mxJ-108" edge="1">
          <mxGeometry width="50" height="50" relative="1" as="geometry">
            <mxPoint x="3497.5" y="590" as="sourcePoint" />
            <mxPoint x="3547.5" y="540" as="targetPoint" />
          </mxGeometry>
        </mxCell>
        <mxCell id="a9wcAX0pc3dKkxditSkH-37" value="Persist form data when state updates" style="edgeLabel;html=1;align=center;verticalAlign=middle;resizable=0;points=[];" parent="a9wcAX0pc3dKkxditSkH-36" vertex="1" connectable="0">
          <mxGeometry x="0.3185" y="3" relative="1" as="geometry">
            <mxPoint x="3" y="19" as="offset" />
          </mxGeometry>
        </mxCell>
        <mxCell id="a9wcAX0pc3dKkxditSkH-41" value="SettingsDataState" style="text;html=1;strokeColor=none;fillColor=none;align=center;verticalAlign=middle;whiteSpace=wrap;rounded=0;" parent="1" vertex="1">
          <mxGeometry x="3893" y="580" width="91" height="10" as="geometry" />
        </mxCell>
        <mxCell id="a9wcAX0pc3dKkxditSkH-42" value="FormDataState" style="text;html=1;strokeColor=none;fillColor=none;align=center;verticalAlign=middle;whiteSpace=wrap;rounded=0;" parent="1" vertex="1">
          <mxGeometry x="3437.5" y="580" width="80" height="10" as="geometry" />
        </mxCell>
        <mxCell id="a9wcAX0pc3dKkxditSkH-43" value="" style="shape=providedRequiredInterface;html=1;verticalLabelPosition=bottom;sketch=0;direction=west;" parent="1" vertex="1">
          <mxGeometry x="3637.5" y="720" width="20" height="20" as="geometry" />
        </mxCell>
        <mxCell id="a9wcAX0pc3dKkxditSkH-44" value="" style="endArrow=none;html=1;rounded=0;entryX=1;entryY=0.5;entryDx=0;entryDy=0;entryPerimeter=0;" parent="1" source="9eyt7Mf1LLAKGoSY_mxJ-43" target="a9wcAX0pc3dKkxditSkH-43" edge="1">
          <mxGeometry width="50" height="50" relative="1" as="geometry">
            <mxPoint x="3577.5" y="730" as="sourcePoint" />
            <mxPoint x="3607.5" y="750" as="targetPoint" />
          </mxGeometry>
        </mxCell>
        <mxCell id="a9wcAX0pc3dKkxditSkH-45" value="" style="endArrow=none;html=1;rounded=0;exitX=0;exitY=0.5;exitDx=0;exitDy=0;exitPerimeter=0;" parent="1" source="a9wcAX0pc3dKkxditSkH-43" target="9eyt7Mf1LLAKGoSY_mxJ-75" edge="1">
          <mxGeometry width="50" height="50" relative="1" as="geometry">
            <mxPoint x="3647.5" y="710" as="sourcePoint" />
            <mxPoint x="3677.5" y="730" as="targetPoint" />
          </mxGeometry>
        </mxCell>
        <mxCell id="a9wcAX0pc3dKkxditSkH-46" value="Generate Source Code" style="text;html=1;strokeColor=none;fillColor=none;align=center;verticalAlign=middle;whiteSpace=wrap;rounded=0;" parent="1" vertex="1">
          <mxGeometry x="3607.5" y="750" width="80" height="10" as="geometry" />
        </mxCell>
        <mxCell id="rh1olKwZ0RmSQ8hatOXi-1" value="" style="group" vertex="1" connectable="0" parent="1">
          <mxGeometry x="160" y="640" width="160" height="80" as="geometry" />
        </mxCell>
        <mxCell id="rh1olKwZ0RmSQ8hatOXi-2" value="«artifact»&lt;br&gt;&lt;b&gt;Formdefinition&lt;/b&gt;" style="html=1;align=center;verticalAlign=middle;dashed=0;whiteSpace=wrap;" vertex="1" parent="rh1olKwZ0RmSQ8hatOXi-1">
          <mxGeometry width="160" height="80" as="geometry" />
        </mxCell>
        <mxCell id="rh1olKwZ0RmSQ8hatOXi-3" value="" style="html=1;outlineConnect=0;whiteSpace=wrap;shape=mxgraph.archimate3.artifact;" vertex="1" parent="rh1olKwZ0RmSQ8hatOXi-1">
          <mxGeometry x="141.66999999999996" y="5.7142857142857135" width="13.33" height="22.857142857142854" as="geometry" />
        </mxCell>
        <mxCell id="rh1olKwZ0RmSQ8hatOXi-4" value="«component»&lt;br&gt;&lt;b&gt;FormDataCreateService&lt;/b&gt;" style="html=1;dropTarget=0;whiteSpace=wrap;" vertex="1" parent="1">
          <mxGeometry x="440" y="640" width="200" height="80" as="geometry" />
        </mxCell>
        <mxCell id="rh1olKwZ0RmSQ8hatOXi-5" value="" style="shape=module;jettyWidth=8;jettyHeight=4;" vertex="1" parent="rh1olKwZ0RmSQ8hatOXi-4">
          <mxGeometry x="1" width="20" height="20" relative="1" as="geometry">
            <mxPoint x="-27" y="7" as="offset" />
          </mxGeometry>
        </mxCell>
        <mxCell id="rh1olKwZ0RmSQ8hatOXi-6" value="FormData" style="shape=providedRequiredInterface;html=1;verticalLabelPosition=bottom;sketch=0;" vertex="1" parent="1">
          <mxGeometry x="680" y="670" width="20" height="20" as="geometry" />
        </mxCell>
        <mxCell id="rh1olKwZ0RmSQ8hatOXi-7" value="" style="endArrow=none;html=1;rounded=0;entryX=0;entryY=0.5;entryDx=0;entryDy=0;entryPerimeter=0;exitX=1;exitY=0.5;exitDx=0;exitDy=0;" edge="1" target="rh1olKwZ0RmSQ8hatOXi-6" parent="1" source="rh1olKwZ0RmSQ8hatOXi-4">
          <mxGeometry width="50" height="50" relative="1" as="geometry">
            <mxPoint x="580" y="690" as="sourcePoint" />
            <mxPoint x="600" y="710" as="targetPoint" />
          </mxGeometry>
        </mxCell>
        <mxCell id="rh1olKwZ0RmSQ8hatOXi-8" value="" style="endArrow=none;html=1;rounded=0;exitX=1;exitY=0.5;exitDx=0;exitDy=0;exitPerimeter=0;" edge="1" source="rh1olKwZ0RmSQ8hatOXi-6" parent="1" target="rh1olKwZ0RmSQ8hatOXi-34">
          <mxGeometry width="50" height="50" relative="1" as="geometry">
            <mxPoint x="700" y="679.94" as="sourcePoint" />
            <mxPoint x="740" y="679.94" as="targetPoint" />
          </mxGeometry>
        </mxCell>
        <mxCell id="rh1olKwZ0RmSQ8hatOXi-12" value="" style="html=1;dropTarget=0;whiteSpace=wrap;" vertex="1" parent="1">
          <mxGeometry x="750" y="600" width="300" height="160" as="geometry" />
        </mxCell>
        <mxCell id="rh1olKwZ0RmSQ8hatOXi-13" value="" style="shape=module;jettyWidth=8;jettyHeight=4;" vertex="1" parent="rh1olKwZ0RmSQ8hatOXi-12">
          <mxGeometry x="1" width="20" height="20" relative="1" as="geometry">
            <mxPoint x="-27" y="7" as="offset" />
          </mxGeometry>
        </mxCell>
        <mxCell id="rh1olKwZ0RmSQ8hatOXi-14" value="«State»&lt;br&gt;&lt;b&gt;FormDataState&lt;/b&gt;" style="html=1;dropTarget=0;whiteSpace=wrap;" vertex="1" parent="1">
          <mxGeometry x="822.5" y="652.5" width="155" height="55" as="geometry" />
        </mxCell>
        <mxCell id="rh1olKwZ0RmSQ8hatOXi-15" value="" style="shape=module;jettyWidth=8;jettyHeight=4;" vertex="1" parent="rh1olKwZ0RmSQ8hatOXi-14">
          <mxGeometry x="1" width="20" height="20" relative="1" as="geometry">
            <mxPoint x="-27" y="7" as="offset" />
          </mxGeometry>
        </mxCell>
        <mxCell id="rh1olKwZ0RmSQ8hatOXi-16" value="«component»&lt;br style=&quot;border-color: var(--border-color);&quot;&gt;&lt;b style=&quot;border-color: var(--border-color);&quot;&gt;FormDataStore&lt;/b&gt;" style="text;html=1;strokeColor=none;fillColor=none;align=center;verticalAlign=middle;whiteSpace=wrap;rounded=0;" vertex="1" parent="1">
          <mxGeometry x="750" y="600" width="100" height="40" as="geometry" />
        </mxCell>
        <mxCell id="rh1olKwZ0RmSQ8hatOXi-20" value="" style="html=1;rounded=0;" vertex="1" parent="1">
          <mxGeometry x="1040" y="670" width="20" height="20" as="geometry" />
        </mxCell>
        <mxCell id="rh1olKwZ0RmSQ8hatOXi-21" value="&lt;div&gt;&lt;br&gt;&lt;/div&gt;&lt;div&gt;&lt;br&gt;&lt;/div&gt;&lt;div&gt;getState&lt;/div&gt;" style="ellipse;whiteSpace=wrap;html=1;aspect=fixed;" vertex="1" parent="1">
          <mxGeometry x="1000" y="672.5" width="15" height="15" as="geometry" />
        </mxCell>
        <mxCell id="rh1olKwZ0RmSQ8hatOXi-22" value="" style="endArrow=none;html=1;rounded=0;exitX=1;exitY=0.5;exitDx=0;exitDy=0;" edge="1" parent="1" target="rh1olKwZ0RmSQ8hatOXi-21" source="rh1olKwZ0RmSQ8hatOXi-14">
          <mxGeometry width="50" height="50" relative="1" as="geometry">
            <mxPoint x="927.5" y="775" as="sourcePoint" />
            <mxPoint x="1099.5" y="942.5" as="targetPoint" />
          </mxGeometry>
        </mxCell>
        <mxCell id="rh1olKwZ0RmSQ8hatOXi-23" value="" style="endArrow=none;html=1;rounded=0;edgeStyle=orthogonalEdgeStyle;" edge="1" parent="1" source="rh1olKwZ0RmSQ8hatOXi-20" target="rh1olKwZ0RmSQ8hatOXi-21">
          <mxGeometry width="50" height="50" relative="1" as="geometry">
            <mxPoint x="750" y="952.5" as="sourcePoint" />
            <mxPoint x="798" y="952.5" as="targetPoint" />
          </mxGeometry>
        </mxCell>
        <mxCell id="rh1olKwZ0RmSQ8hatOXi-24" value="&lt;div&gt;&lt;br&gt;&lt;/div&gt;Observable&lt;div&gt;&amp;lt;FormDataState&amp;gt;&lt;/div&gt;" style="shape=providedRequiredInterface;html=1;verticalLabelPosition=bottom;sketch=0;direction=east;" vertex="1" parent="1">
          <mxGeometry x="1140" y="670" width="20" height="20" as="geometry" />
        </mxCell>
        <mxCell id="rh1olKwZ0RmSQ8hatOXi-25" value="" style="endArrow=none;html=1;rounded=0;entryX=0;entryY=0.5;entryDx=0;entryDy=0;entryPerimeter=0;" edge="1" target="rh1olKwZ0RmSQ8hatOXi-24" parent="1" source="rh1olKwZ0RmSQ8hatOXi-20">
          <mxGeometry width="50" height="50" relative="1" as="geometry">
            <mxPoint x="850" y="840" as="sourcePoint" />
            <mxPoint x="870" y="860" as="targetPoint" />
          </mxGeometry>
        </mxCell>
        <mxCell id="rh1olKwZ0RmSQ8hatOXi-26" value="" style="endArrow=none;html=1;rounded=0;exitX=1;exitY=0.5;exitDx=0;exitDy=0;exitPerimeter=0;edgeStyle=orthogonalEdgeStyle;entryX=0.5;entryY=0;entryDx=0;entryDy=0;" edge="1" source="rh1olKwZ0RmSQ8hatOXi-24" parent="1" target="rh1olKwZ0RmSQ8hatOXi-42">
          <mxGeometry width="50" height="50" relative="1" as="geometry">
            <mxPoint x="910" y="814.94" as="sourcePoint" />
            <mxPoint x="1180" y="680" as="targetPoint" />
          </mxGeometry>
        </mxCell>
        <mxCell id="rh1olKwZ0RmSQ8hatOXi-34" value="" style="html=1;rounded=0;" vertex="1" parent="1">
          <mxGeometry x="740" y="670" width="20" height="20" as="geometry" />
        </mxCell>
        <mxCell id="rh1olKwZ0RmSQ8hatOXi-35" value="&lt;div&gt;&lt;span style=&quot;background-color: initial;&quot;&gt;setState&lt;/span&gt;&lt;/div&gt;" style="shape=requiredInterface;html=1;verticalLabelPosition=bottom;sketch=0;" vertex="1" parent="1">
          <mxGeometry x="785" y="670" width="10" height="20" as="geometry" />
        </mxCell>
        <mxCell id="rh1olKwZ0RmSQ8hatOXi-36" value="" style="endArrow=none;html=1;rounded=0;exitX=1;exitY=0.5;exitDx=0;exitDy=0;exitPerimeter=0;" edge="1" source="rh1olKwZ0RmSQ8hatOXi-35" parent="1" target="rh1olKwZ0RmSQ8hatOXi-14">
          <mxGeometry width="50" height="50" relative="1" as="geometry">
            <mxPoint x="860" y="680" as="sourcePoint" />
            <mxPoint x="917.5" y="620" as="targetPoint" />
          </mxGeometry>
        </mxCell>
        <mxCell id="rh1olKwZ0RmSQ8hatOXi-38" value="" style="endArrow=none;html=1;rounded=0;edgeStyle=orthogonalEdgeStyle;entryX=0;entryY=0.5;entryDx=0;entryDy=0;entryPerimeter=0;" edge="1" parent="1" source="rh1olKwZ0RmSQ8hatOXi-34" target="rh1olKwZ0RmSQ8hatOXi-35">
          <mxGeometry width="50" height="50" relative="1" as="geometry">
            <mxPoint x="750" y="670" as="sourcePoint" />
            <mxPoint x="633" y="620" as="targetPoint" />
          </mxGeometry>
        </mxCell>
        <mxCell id="rh1olKwZ0RmSQ8hatOXi-39" value="Formdefinition" style="shape=providedRequiredInterface;html=1;verticalLabelPosition=bottom;sketch=0;" vertex="1" parent="1">
          <mxGeometry x="370" y="670" width="20" height="20" as="geometry" />
        </mxCell>
        <mxCell id="rh1olKwZ0RmSQ8hatOXi-40" value="" style="endArrow=none;html=1;rounded=0;entryX=0;entryY=0.5;entryDx=0;entryDy=0;entryPerimeter=0;" edge="1" target="rh1olKwZ0RmSQ8hatOXi-39" parent="1" source="rh1olKwZ0RmSQ8hatOXi-2">
          <mxGeometry width="50" height="50" relative="1" as="geometry">
            <mxPoint x="310" y="680" as="sourcePoint" />
            <mxPoint x="330" y="700" as="targetPoint" />
          </mxGeometry>
        </mxCell>
        <mxCell id="rh1olKwZ0RmSQ8hatOXi-41" value="" style="endArrow=none;html=1;rounded=0;exitX=1;exitY=0.5;exitDx=0;exitDy=0;exitPerimeter=0;" edge="1" source="rh1olKwZ0RmSQ8hatOXi-39" parent="1" target="rh1olKwZ0RmSQ8hatOXi-4">
          <mxGeometry width="50" height="50" relative="1" as="geometry">
            <mxPoint x="370" y="679.94" as="sourcePoint" />
            <mxPoint x="410" y="679.94" as="targetPoint" />
          </mxGeometry>
        </mxCell>
        <mxCell id="rh1olKwZ0RmSQ8hatOXi-42" value="«Container Component»&lt;br&gt;&lt;b&gt;FormView&lt;/b&gt;" style="html=1;dropTarget=0;whiteSpace=wrap;" vertex="1" parent="1">
          <mxGeometry x="1250" y="670" width="160" height="80" as="geometry" />
        </mxCell>
        <mxCell id="rh1olKwZ0RmSQ8hatOXi-43" value="" style="shape=module;jettyWidth=8;jettyHeight=4;" vertex="1" parent="rh1olKwZ0RmSQ8hatOXi-42">
          <mxGeometry x="1" width="20" height="20" relative="1" as="geometry">
            <mxPoint x="-27" y="7" as="offset" />
          </mxGeometry>
        </mxCell>
        <mxCell id="rh1olKwZ0RmSQ8hatOXi-45" value="«Service»&lt;br&gt;&lt;b&gt;FormDataStorageService&lt;br&gt;&lt;/b&gt;" style="html=1;dropTarget=0;whiteSpace=wrap;" vertex="1" parent="1">
          <mxGeometry x="830" y="360" width="160" height="80" as="geometry" />
        </mxCell>
        <mxCell id="rh1olKwZ0RmSQ8hatOXi-46" value="" style="shape=module;jettyWidth=8;jettyHeight=4;" vertex="1" parent="rh1olKwZ0RmSQ8hatOXi-45">
          <mxGeometry x="1" width="20" height="20" relative="1" as="geometry">
            <mxPoint x="-27" y="7" as="offset" />
          </mxGeometry>
        </mxCell>
        <mxCell id="rh1olKwZ0RmSQ8hatOXi-72" value="" style="group" vertex="1" connectable="0" parent="1">
          <mxGeometry x="1420" y="120" width="140" height="135" as="geometry" />
        </mxCell>
        <mxCell id="rh1olKwZ0RmSQ8hatOXi-48" value="&lt;b&gt;LocalStorage&lt;/b&gt;" style="html=1;dropTarget=0;whiteSpace=wrap;" vertex="1" parent="rh1olKwZ0RmSQ8hatOXi-72">
          <mxGeometry width="140" height="70" as="geometry" />
        </mxCell>
        <mxCell id="rh1olKwZ0RmSQ8hatOXi-49" value="Any" style="shape=providedRequiredInterface;html=1;verticalLabelPosition=bottom;sketch=0;direction=north;" vertex="1" parent="rh1olKwZ0RmSQ8hatOXi-72">
          <mxGeometry x="25" y="100" width="20" height="20" as="geometry" />
        </mxCell>
        <mxCell id="rh1olKwZ0RmSQ8hatOXi-51" value="" style="endArrow=none;html=1;rounded=0;entryX=0.25;entryY=1;entryDx=0;entryDy=0;edgeStyle=orthogonalEdgeStyle;" edge="1" source="rh1olKwZ0RmSQ8hatOXi-49" parent="rh1olKwZ0RmSQ8hatOXi-72">
          <mxGeometry width="50" height="50" relative="1" as="geometry">
            <mxPoint x="30" y="125" as="sourcePoint" />
            <mxPoint x="30" y="70" as="targetPoint" />
            <Array as="points">
              <mxPoint x="35" y="70" />
            </Array>
          </mxGeometry>
        </mxCell>
        <mxCell id="rh1olKwZ0RmSQ8hatOXi-62" value="Load" style="edgeLabel;html=1;align=center;verticalAlign=middle;resizable=0;points=[];" vertex="1" connectable="0" parent="rh1olKwZ0RmSQ8hatOXi-51">
          <mxGeometry relative="1" as="geometry">
            <mxPoint x="-25" y="-2" as="offset" />
          </mxGeometry>
        </mxCell>
        <mxCell id="rh1olKwZ0RmSQ8hatOXi-73" value="" style="endArrow=none;html=1;rounded=0;exitX=0.25;exitY=0;exitDx=0;exitDy=0;edgeStyle=orthogonalEdgeStyle;entryX=0;entryY=0.5;entryDx=0;entryDy=0;entryPerimeter=0;" edge="1" parent="1" source="rh1olKwZ0RmSQ8hatOXi-45" target="rh1olKwZ0RmSQ8hatOXi-49">
          <mxGeometry width="50" height="50" relative="1" as="geometry">
            <mxPoint x="1080" y="480" as="sourcePoint" />
            <mxPoint x="970" y="280" as="targetPoint" />
            <Array as="points">
              <mxPoint x="870" y="270" />
              <mxPoint x="1455" y="270" />
            </Array>
          </mxGeometry>
        </mxCell>
        <mxCell id="rh1olKwZ0RmSQ8hatOXi-74" value="FormData" style="shape=providedRequiredInterface;html=1;verticalLabelPosition=bottom;sketch=0;direction=south;" vertex="1" parent="1">
          <mxGeometry x="860" y="500" width="20" height="20" as="geometry" />
        </mxCell>
        <mxCell id="rh1olKwZ0RmSQ8hatOXi-76" value="&lt;div&gt;&lt;br&gt;&lt;/div&gt;Observable&lt;div&gt;&amp;lt;FormDataState&amp;gt;&lt;/div&gt;" style="shape=providedRequiredInterface;html=1;verticalLabelPosition=bottom;sketch=0;direction=north;" vertex="1" parent="1">
          <mxGeometry x="940" y="500" width="20" height="20" as="geometry" />
        </mxCell>
        <mxCell id="rh1olKwZ0RmSQ8hatOXi-81" value="" style="html=1;rounded=0;" vertex="1" parent="1">
          <mxGeometry x="860" y="590" width="20" height="20" as="geometry" />
        </mxCell>
        <mxCell id="rh1olKwZ0RmSQ8hatOXi-82" value="" style="endArrow=none;html=1;rounded=0;edgeStyle=orthogonalEdgeStyle;exitX=0.5;exitY=1;exitDx=0;exitDy=0;" edge="1" parent="1" source="rh1olKwZ0RmSQ8hatOXi-81" target="rh1olKwZ0RmSQ8hatOXi-35">
          <mxGeometry width="50" height="50" relative="1" as="geometry">
            <mxPoint x="910" y="570" as="sourcePoint" />
            <mxPoint x="795" y="690" as="targetPoint" />
            <Array as="points">
              <mxPoint x="870" y="640" />
              <mxPoint x="790" y="640" />
            </Array>
          </mxGeometry>
        </mxCell>
        <mxCell id="rh1olKwZ0RmSQ8hatOXi-83" value="" style="endArrow=none;html=1;rounded=0;exitX=0.5;exitY=0;exitDx=0;exitDy=0;edgeStyle=orthogonalEdgeStyle;entryX=1;entryY=0.5;entryDx=0;entryDy=0;entryPerimeter=0;" edge="1" parent="1" source="rh1olKwZ0RmSQ8hatOXi-81" target="rh1olKwZ0RmSQ8hatOXi-74">
          <mxGeometry width="50" height="50" relative="1" as="geometry">
            <mxPoint x="720" y="550" as="sourcePoint" />
            <mxPoint x="768" y="550" as="targetPoint" />
          </mxGeometry>
        </mxCell>
        <mxCell id="rh1olKwZ0RmSQ8hatOXi-85" value="" style="html=1;rounded=0;" vertex="1" parent="1">
          <mxGeometry x="940" y="590" width="20" height="20" as="geometry" />
        </mxCell>
        <mxCell id="rh1olKwZ0RmSQ8hatOXi-86" value="" style="endArrow=none;html=1;rounded=0;exitX=0.5;exitY=0;exitDx=0;exitDy=0;edgeStyle=orthogonalEdgeStyle;entryX=0;entryY=0.5;entryDx=0;entryDy=0;entryPerimeter=0;" edge="1" parent="1" source="rh1olKwZ0RmSQ8hatOXi-85" target="rh1olKwZ0RmSQ8hatOXi-76">
          <mxGeometry width="50" height="50" relative="1" as="geometry">
            <mxPoint x="870" y="600" as="sourcePoint" />
            <mxPoint x="820" y="510" as="targetPoint" />
          </mxGeometry>
        </mxCell>
        <mxCell id="rh1olKwZ0RmSQ8hatOXi-88" value="" style="endArrow=none;html=1;rounded=0;edgeStyle=orthogonalEdgeStyle;exitX=0.5;exitY=1;exitDx=0;exitDy=0;entryX=1;entryY=0;entryDx=0;entryDy=0;" edge="1" parent="1" source="rh1olKwZ0RmSQ8hatOXi-85" target="rh1olKwZ0RmSQ8hatOXi-21">
          <mxGeometry width="50" height="50" relative="1" as="geometry">
            <mxPoint x="1050" y="690" as="sourcePoint" />
            <mxPoint x="1030" y="690" as="targetPoint" />
            <Array as="points">
              <mxPoint x="950" y="640" />
              <mxPoint x="1013" y="640" />
            </Array>
          </mxGeometry>
        </mxCell>
        <mxCell id="rh1olKwZ0RmSQ8hatOXi-89" value="" style="endArrow=none;html=1;rounded=0;exitX=0.25;exitY=1;exitDx=0;exitDy=0;edgeStyle=orthogonalEdgeStyle;entryX=0;entryY=0.5;entryDx=0;entryDy=0;entryPerimeter=0;" edge="1" parent="1" source="rh1olKwZ0RmSQ8hatOXi-45" target="rh1olKwZ0RmSQ8hatOXi-74">
          <mxGeometry width="50" height="50" relative="1" as="geometry">
            <mxPoint x="770" y="480" as="sourcePoint" />
            <mxPoint x="818" y="480" as="targetPoint" />
          </mxGeometry>
        </mxCell>
        <mxCell id="rh1olKwZ0RmSQ8hatOXi-93" value="Load FormData&lt;div&gt;from Web Storage&lt;/div&gt;" style="edgeLabel;html=1;align=center;verticalAlign=middle;resizable=0;points=[];" vertex="1" connectable="0" parent="rh1olKwZ0RmSQ8hatOXi-89">
          <mxGeometry x="-0.0905" y="-1" relative="1" as="geometry">
            <mxPoint x="-49" y="3" as="offset" />
          </mxGeometry>
        </mxCell>
        <mxCell id="rh1olKwZ0RmSQ8hatOXi-90" value="" style="endArrow=none;html=1;rounded=0;exitX=0.75;exitY=1;exitDx=0;exitDy=0;edgeStyle=orthogonalEdgeStyle;entryX=1;entryY=0.5;entryDx=0;entryDy=0;entryPerimeter=0;" edge="1" parent="1" source="rh1olKwZ0RmSQ8hatOXi-45" target="rh1olKwZ0RmSQ8hatOXi-76">
          <mxGeometry width="50" height="50" relative="1" as="geometry">
            <mxPoint x="970" y="470" as="sourcePoint" />
            <mxPoint x="1018" y="470" as="targetPoint" />
          </mxGeometry>
        </mxCell>
        <mxCell id="rh1olKwZ0RmSQ8hatOXi-94" value="Persist FormData&lt;div&gt;in Web Storage&lt;/div&gt;" style="edgeLabel;html=1;align=center;verticalAlign=middle;resizable=0;points=[];" vertex="1" connectable="0" parent="rh1olKwZ0RmSQ8hatOXi-90">
          <mxGeometry x="-0.1698" y="-1" relative="1" as="geometry">
            <mxPoint x="51" y="5" as="offset" />
          </mxGeometry>
        </mxCell>
        <mxCell id="rh1olKwZ0RmSQ8hatOXi-91" value="" style="endArrow=none;html=1;rounded=0;exitX=0.75;exitY=0;exitDx=0;exitDy=0;entryX=1;entryY=0.5;entryDx=0;entryDy=0;entryPerimeter=0;edgeStyle=orthogonalEdgeStyle;" edge="1" parent="1" source="rh1olKwZ0RmSQ8hatOXi-45" target="rh1olKwZ0RmSQ8hatOXi-52">
          <mxGeometry width="50" height="50" relative="1" as="geometry">
            <mxPoint x="880" y="370" as="sourcePoint" />
            <mxPoint x="1035" y="278" as="targetPoint" />
            <Array as="points">
              <mxPoint x="950" y="320" />
              <mxPoint x="1525" y="320" />
            </Array>
          </mxGeometry>
        </mxCell>
        <mxCell id="rh1olKwZ0RmSQ8hatOXi-95" value="«Presentational&amp;nbsp;&lt;span style=&quot;background-color: initial;&quot;&gt;Component»&lt;/span&gt;&lt;div&gt;&lt;b&gt;FormComponent&lt;/b&gt;&lt;/div&gt;" style="html=1;dropTarget=0;whiteSpace=wrap;" vertex="1" parent="1">
          <mxGeometry x="1250" y="920" width="160" height="80" as="geometry" />
        </mxCell>
        <mxCell id="rh1olKwZ0RmSQ8hatOXi-96" value="" style="shape=module;jettyWidth=8;jettyHeight=4;" vertex="1" parent="rh1olKwZ0RmSQ8hatOXi-95">
          <mxGeometry x="1" width="20" height="20" relative="1" as="geometry">
            <mxPoint x="-27" y="7" as="offset" />
          </mxGeometry>
        </mxCell>
        <mxCell id="rh1olKwZ0RmSQ8hatOXi-97" value="&lt;div&gt;&lt;br&gt;&lt;/div&gt;Angular Material&lt;div&gt;Form&lt;/div&gt;" style="shape=providedRequiredInterface;html=1;verticalLabelPosition=bottom;sketch=0;direction=south;" vertex="1" parent="1">
          <mxGeometry x="1360" y="840" width="20" height="20" as="geometry" />
        </mxCell>
        <mxCell id="rh1olKwZ0RmSQ8hatOXi-98" value="" style="endArrow=none;html=1;rounded=0;entryX=0;entryY=0.5;entryDx=0;entryDy=0;entryPerimeter=0;exitX=0.75;exitY=1;exitDx=0;exitDy=0;" edge="1" target="rh1olKwZ0RmSQ8hatOXi-97" parent="1" source="rh1olKwZ0RmSQ8hatOXi-42">
          <mxGeometry width="50" height="50" relative="1" as="geometry">
            <mxPoint x="1450" y="920" as="sourcePoint" />
            <mxPoint x="1470" y="940" as="targetPoint" />
          </mxGeometry>
        </mxCell>
        <mxCell id="rh1olKwZ0RmSQ8hatOXi-99" value="" style="endArrow=none;html=1;rounded=0;entryX=0.75;entryY=0;entryDx=0;entryDy=0;exitX=1;exitY=0.5;exitDx=0;exitDy=0;exitPerimeter=0;" edge="1" source="rh1olKwZ0RmSQ8hatOXi-97" parent="1" target="rh1olKwZ0RmSQ8hatOXi-95">
          <mxGeometry width="50" height="50" relative="1" as="geometry">
            <mxPoint x="1520" y="879.94" as="sourcePoint" />
            <mxPoint x="1560" y="879.94" as="targetPoint" />
          </mxGeometry>
        </mxCell>
        <mxCell id="rh1olKwZ0RmSQ8hatOXi-100" value="" style="html=1;rounded=0;" vertex="1" parent="1">
          <mxGeometry x="890" y="750" width="20" height="20" as="geometry" />
        </mxCell>
        <mxCell id="rh1olKwZ0RmSQ8hatOXi-103" value="updateState" style="shape=requiredInterface;html=1;verticalLabelPosition=bottom;sketch=0;direction=north;" vertex="1" parent="1">
          <mxGeometry x="890" y="720" width="20" height="10" as="geometry" />
        </mxCell>
        <mxCell id="rh1olKwZ0RmSQ8hatOXi-104" value="" style="endArrow=none;html=1;rounded=0;exitX=1;exitY=0.5;exitDx=0;exitDy=0;exitPerimeter=0;entryX=0.5;entryY=1;entryDx=0;entryDy=0;" edge="1" source="rh1olKwZ0RmSQ8hatOXi-103" parent="1" target="rh1olKwZ0RmSQ8hatOXi-14">
          <mxGeometry width="50" height="50" relative="1" as="geometry">
            <mxPoint x="940" y="730" as="sourcePoint" />
            <mxPoint x="920" y="730" as="targetPoint" />
          </mxGeometry>
        </mxCell>
        <mxCell id="rh1olKwZ0RmSQ8hatOXi-106" value="" style="endArrow=none;html=1;rounded=0;exitX=0;exitY=0.5;exitDx=0;exitDy=0;edgeStyle=orthogonalEdgeStyle;exitPerimeter=0;" edge="1" parent="1" source="rh1olKwZ0RmSQ8hatOXi-103" target="rh1olKwZ0RmSQ8hatOXi-100">
          <mxGeometry width="50" height="50" relative="1" as="geometry">
            <mxPoint x="970" y="820" as="sourcePoint" />
            <mxPoint x="1018" y="820" as="targetPoint" />
          </mxGeometry>
        </mxCell>
        <mxCell id="rh1olKwZ0RmSQ8hatOXi-107" value="&lt;div&gt;FormData&lt;/div&gt;" style="shape=providedRequiredInterface;html=1;verticalLabelPosition=bottom;sketch=0;direction=west;" vertex="1" parent="1">
          <mxGeometry x="1070" y="790" width="20" height="20" as="geometry" />
        </mxCell>
        <mxCell id="rh1olKwZ0RmSQ8hatOXi-108" value="" style="endArrow=none;html=1;rounded=0;exitX=0.5;exitY=1;exitDx=0;exitDy=0;entryX=1;entryY=0.5;entryDx=0;entryDy=0;entryPerimeter=0;edgeStyle=orthogonalEdgeStyle;" edge="1" target="rh1olKwZ0RmSQ8hatOXi-107" parent="1" source="rh1olKwZ0RmSQ8hatOXi-100">
          <mxGeometry width="50" height="50" relative="1" as="geometry">
            <mxPoint x="1020" y="810" as="sourcePoint" />
            <mxPoint x="1090" y="800" as="targetPoint" />
          </mxGeometry>
        </mxCell>
        <mxCell id="rh1olKwZ0RmSQ8hatOXi-109" value="" style="endArrow=none;html=1;rounded=0;entryX=0;entryY=0.5;entryDx=0;entryDy=0;exitX=0;exitY=0.5;exitDx=0;exitDy=0;exitPerimeter=0;edgeStyle=orthogonalEdgeStyle;" edge="1" source="rh1olKwZ0RmSQ8hatOXi-107" parent="1" target="rh1olKwZ0RmSQ8hatOXi-42">
          <mxGeometry width="50" height="50" relative="1" as="geometry">
            <mxPoint x="1170" y="790" as="sourcePoint" />
            <mxPoint x="1120" y="809.94" as="targetPoint" />
          </mxGeometry>
        </mxCell>
        <mxCell id="rh1olKwZ0RmSQ8hatOXi-110" value="FormData" style="shape=providedRequiredInterface;html=1;verticalLabelPosition=bottom;sketch=0;direction=north;" vertex="1" parent="1">
          <mxGeometry x="1280" y="840" width="20" height="20" as="geometry" />
        </mxCell>
        <mxCell id="rh1olKwZ0RmSQ8hatOXi-111" value="" style="endArrow=none;html=1;rounded=0;entryX=0;entryY=0.5;entryDx=0;entryDy=0;entryPerimeter=0;exitX=0.25;exitY=0;exitDx=0;exitDy=0;" edge="1" target="rh1olKwZ0RmSQ8hatOXi-110" parent="1" source="rh1olKwZ0RmSQ8hatOXi-95">
          <mxGeometry width="50" height="50" relative="1" as="geometry">
            <mxPoint x="1200" y="840" as="sourcePoint" />
            <mxPoint x="1220" y="860" as="targetPoint" />
          </mxGeometry>
        </mxCell>
        <mxCell id="rh1olKwZ0RmSQ8hatOXi-112" value="" style="endArrow=none;html=1;rounded=0;entryX=0.25;entryY=1;entryDx=0;entryDy=0;exitX=1;exitY=0.5;exitDx=0;exitDy=0;exitPerimeter=0;" edge="1" source="rh1olKwZ0RmSQ8hatOXi-110" parent="1" target="rh1olKwZ0RmSQ8hatOXi-42">
          <mxGeometry width="50" height="50" relative="1" as="geometry">
            <mxPoint x="1250" y="879.94" as="sourcePoint" />
            <mxPoint x="1290" y="879.94" as="targetPoint" />
          </mxGeometry>
        </mxCell>
        <mxCell id="rh1olKwZ0RmSQ8hatOXi-113" value="User interactions&lt;div&gt;to edit form&lt;/div&gt;" style="edgeLabel;html=1;align=center;verticalAlign=middle;resizable=0;points=[];" vertex="1" connectable="0" parent="rh1olKwZ0RmSQ8hatOXi-112">
          <mxGeometry x="-0.0914" relative="1" as="geometry">
            <mxPoint x="-50" y="84" as="offset" />
          </mxGeometry>
        </mxCell>
        <mxCell id="rh1olKwZ0RmSQ8hatOXi-211" value="User interactions&lt;div&gt;to edit config&lt;/div&gt;" style="edgeLabel;html=1;align=center;verticalAlign=middle;resizable=0;points=[];" vertex="1" connectable="0" parent="rh1olKwZ0RmSQ8hatOXi-112">
          <mxGeometry x="-0.0914" relative="1" as="geometry">
            <mxPoint x="760" y="41" as="offset" />
          </mxGeometry>
        </mxCell>
        <mxCell id="rh1olKwZ0RmSQ8hatOXi-114" value="" style="endArrow=none;dashed=1;html=1;rounded=0;entryX=0;entryY=0.5;entryDx=0;entryDy=0;exitX=0.25;exitY=1;exitDx=0;exitDy=0;" edge="1" parent="1" source="rh1olKwZ0RmSQ8hatOXi-42" target="rh1olKwZ0RmSQ8hatOXi-42">
          <mxGeometry width="50" height="50" relative="1" as="geometry">
            <mxPoint x="1170" y="875" as="sourcePoint" />
            <mxPoint x="1240" y="840" as="targetPoint" />
          </mxGeometry>
        </mxCell>
        <mxCell id="rh1olKwZ0RmSQ8hatOXi-115" value="" style="endArrow=none;dashed=1;html=1;rounded=0;entryX=0.5;entryY=0;entryDx=0;entryDy=0;exitX=1;exitY=0.25;exitDx=0;exitDy=0;" edge="1" parent="1" source="rh1olKwZ0RmSQ8hatOXi-42" target="rh1olKwZ0RmSQ8hatOXi-42">
          <mxGeometry width="50" height="50" relative="1" as="geometry">
            <mxPoint x="1370" y="720" as="sourcePoint" />
            <mxPoint x="1250" y="810" as="targetPoint" />
          </mxGeometry>
        </mxCell>
        <mxCell id="rh1olKwZ0RmSQ8hatOXi-116" value="" style="endArrow=none;dashed=1;html=1;rounded=0;entryX=0.25;entryY=0;entryDx=0;entryDy=0;exitX=0.25;exitY=1;exitDx=0;exitDy=0;" edge="1" parent="1" source="rh1olKwZ0RmSQ8hatOXi-45" target="rh1olKwZ0RmSQ8hatOXi-45">
          <mxGeometry width="50" height="50" relative="1" as="geometry">
            <mxPoint x="740" y="455" as="sourcePoint" />
            <mxPoint x="810" y="420" as="targetPoint" />
          </mxGeometry>
        </mxCell>
        <mxCell id="rh1olKwZ0RmSQ8hatOXi-117" value="" style="endArrow=none;dashed=1;html=1;rounded=0;entryX=0.75;entryY=0;entryDx=0;entryDy=0;exitX=0.75;exitY=1;exitDx=0;exitDy=0;" edge="1" parent="1" source="rh1olKwZ0RmSQ8hatOXi-45" target="rh1olKwZ0RmSQ8hatOXi-45">
          <mxGeometry width="50" height="50" relative="1" as="geometry">
            <mxPoint x="880" y="450" as="sourcePoint" />
            <mxPoint x="880" y="370" as="targetPoint" />
          </mxGeometry>
        </mxCell>
        <mxCell id="rh1olKwZ0RmSQ8hatOXi-118" value="" style="group" vertex="1" connectable="0" parent="1">
          <mxGeometry x="1555" y="650" width="160" height="80" as="geometry" />
        </mxCell>
        <mxCell id="rh1olKwZ0RmSQ8hatOXi-119" value="«Service»&lt;br&gt;&lt;b&gt;AngularMaterialForm-&lt;/b&gt;&lt;div&gt;&lt;b&gt;CreateService&lt;/b&gt;&lt;/div&gt;" style="html=1;align=center;verticalAlign=middle;dashed=0;whiteSpace=wrap;" vertex="1" parent="rh1olKwZ0RmSQ8hatOXi-118">
          <mxGeometry width="160" height="80" as="geometry" />
        </mxCell>
        <mxCell id="rh1olKwZ0RmSQ8hatOXi-120" value="FormData" style="shape=providedRequiredInterface;html=1;verticalLabelPosition=bottom;sketch=0;" vertex="1" parent="1">
          <mxGeometry x="1480" y="680" width="20" height="20" as="geometry" />
        </mxCell>
        <mxCell id="rh1olKwZ0RmSQ8hatOXi-121" value="" style="endArrow=none;html=1;rounded=0;entryX=0;entryY=0.5;entryDx=0;entryDy=0;entryPerimeter=0;exitX=1;exitY=0.25;exitDx=0;exitDy=0;edgeStyle=orthogonalEdgeStyle;" edge="1" target="rh1olKwZ0RmSQ8hatOXi-120" parent="1" source="rh1olKwZ0RmSQ8hatOXi-42">
          <mxGeometry width="50" height="50" relative="1" as="geometry">
            <mxPoint x="1440" y="910" as="sourcePoint" />
            <mxPoint x="1460" y="930" as="targetPoint" />
          </mxGeometry>
        </mxCell>
        <mxCell id="rh1olKwZ0RmSQ8hatOXi-122" value="" style="endArrow=none;html=1;rounded=0;entryX=0;entryY=0.5;entryDx=0;entryDy=0;exitX=1;exitY=0.5;exitDx=0;exitDy=0;exitPerimeter=0;edgeStyle=orthogonalEdgeStyle;" edge="1" source="rh1olKwZ0RmSQ8hatOXi-120" parent="1" target="rh1olKwZ0RmSQ8hatOXi-119">
          <mxGeometry width="50" height="50" relative="1" as="geometry">
            <mxPoint x="1485" y="929.94" as="sourcePoint" />
            <mxPoint x="1525" y="929.94" as="targetPoint" />
          </mxGeometry>
        </mxCell>
        <mxCell id="rh1olKwZ0RmSQ8hatOXi-123" value="Angular Material Form" style="shape=providedRequiredInterface;html=1;verticalLabelPosition=bottom;sketch=0;direction=west;" vertex="1" parent="1">
          <mxGeometry x="1505" y="777.5" width="20" height="20" as="geometry" />
        </mxCell>
        <mxCell id="rh1olKwZ0RmSQ8hatOXi-124" value="" style="endArrow=none;html=1;rounded=0;entryX=1;entryY=0.5;entryDx=0;entryDy=0;entryPerimeter=0;exitX=1;exitY=0.75;exitDx=0;exitDy=0;edgeStyle=orthogonalEdgeStyle;" edge="1" target="rh1olKwZ0RmSQ8hatOXi-123" parent="1" source="rh1olKwZ0RmSQ8hatOXi-42">
          <mxGeometry width="50" height="50" relative="1" as="geometry">
            <mxPoint x="1400" y="990" as="sourcePoint" />
            <mxPoint x="1430" y="970" as="targetPoint" />
          </mxGeometry>
        </mxCell>
        <mxCell id="rh1olKwZ0RmSQ8hatOXi-125" value="" style="endArrow=none;html=1;rounded=0;exitX=0;exitY=0.5;exitDx=0;exitDy=0;exitPerimeter=0;edgeStyle=orthogonalEdgeStyle;entryX=0.5;entryY=1;entryDx=0;entryDy=0;" edge="1" source="rh1olKwZ0RmSQ8hatOXi-123" parent="1" target="rh1olKwZ0RmSQ8hatOXi-119">
          <mxGeometry width="50" height="50" relative="1" as="geometry">
            <mxPoint x="1465" y="1030" as="sourcePoint" />
            <mxPoint x="1645" y="740" as="targetPoint" />
          </mxGeometry>
        </mxCell>
        <mxCell id="rh1olKwZ0RmSQ8hatOXi-126" value="" style="endArrow=none;dashed=1;html=1;rounded=0;entryX=1;entryY=0.75;entryDx=0;entryDy=0;exitX=0.75;exitY=1;exitDx=0;exitDy=0;" edge="1" parent="1" source="rh1olKwZ0RmSQ8hatOXi-42" target="rh1olKwZ0RmSQ8hatOXi-42">
          <mxGeometry width="50" height="50" relative="1" as="geometry">
            <mxPoint x="1420" y="695" as="sourcePoint" />
            <mxPoint x="1490" y="660" as="targetPoint" />
          </mxGeometry>
        </mxCell>
        <mxCell id="rh1olKwZ0RmSQ8hatOXi-135" value="" style="html=1;dropTarget=0;whiteSpace=wrap;" vertex="1" parent="1">
          <mxGeometry x="2270" y="440" width="300" height="160" as="geometry" />
        </mxCell>
        <mxCell id="rh1olKwZ0RmSQ8hatOXi-136" value="" style="shape=module;jettyWidth=8;jettyHeight=4;" vertex="1" parent="rh1olKwZ0RmSQ8hatOXi-135">
          <mxGeometry x="1" width="20" height="20" relative="1" as="geometry">
            <mxPoint x="-27" y="7" as="offset" />
          </mxGeometry>
        </mxCell>
        <mxCell id="rh1olKwZ0RmSQ8hatOXi-137" value="«State»&lt;br&gt;&lt;b&gt;FormConfigState&lt;/b&gt;" style="html=1;dropTarget=0;whiteSpace=wrap;" vertex="1" parent="1">
          <mxGeometry x="2337.5" y="497.5" width="155" height="55" as="geometry" />
        </mxCell>
        <mxCell id="rh1olKwZ0RmSQ8hatOXi-138" value="" style="shape=module;jettyWidth=8;jettyHeight=4;" vertex="1" parent="rh1olKwZ0RmSQ8hatOXi-137">
          <mxGeometry x="1" width="20" height="20" relative="1" as="geometry">
            <mxPoint x="-27" y="7" as="offset" />
          </mxGeometry>
        </mxCell>
        <mxCell id="rh1olKwZ0RmSQ8hatOXi-139" value="«component»&lt;br style=&quot;border-color: var(--border-color);&quot;&gt;&lt;b style=&quot;border-color: var(--border-color);&quot;&gt;FormConfigStore&lt;/b&gt;" style="text;html=1;strokeColor=none;fillColor=none;align=center;verticalAlign=middle;whiteSpace=wrap;rounded=0;" vertex="1" parent="1">
          <mxGeometry x="2270" y="440" width="100" height="40" as="geometry" />
        </mxCell>
        <mxCell id="rh1olKwZ0RmSQ8hatOXi-140" value="" style="html=1;rounded=0;" vertex="1" parent="1">
          <mxGeometry x="2260" y="515" width="20" height="20" as="geometry" />
        </mxCell>
        <mxCell id="rh1olKwZ0RmSQ8hatOXi-141" value="&lt;div&gt;&lt;br&gt;&lt;/div&gt;&lt;div&gt;&lt;br&gt;&lt;/div&gt;&lt;div&gt;getState&lt;/div&gt;" style="ellipse;whiteSpace=wrap;html=1;aspect=fixed;" vertex="1" parent="1">
          <mxGeometry x="2297.5" y="517.5" width="15" height="15" as="geometry" />
        </mxCell>
        <mxCell id="rh1olKwZ0RmSQ8hatOXi-142" value="" style="endArrow=none;html=1;rounded=0;exitX=0;exitY=0.5;exitDx=0;exitDy=0;" edge="1" parent="1" source="rh1olKwZ0RmSQ8hatOXi-137" target="rh1olKwZ0RmSQ8hatOXi-141">
          <mxGeometry width="50" height="50" relative="1" as="geometry">
            <mxPoint x="2442.5" y="620" as="sourcePoint" />
            <mxPoint x="2614.5" y="787.5" as="targetPoint" />
          </mxGeometry>
        </mxCell>
        <mxCell id="rh1olKwZ0RmSQ8hatOXi-143" value="" style="endArrow=none;html=1;rounded=0;edgeStyle=orthogonalEdgeStyle;" edge="1" parent="1" source="rh1olKwZ0RmSQ8hatOXi-140" target="rh1olKwZ0RmSQ8hatOXi-141">
          <mxGeometry width="50" height="50" relative="1" as="geometry">
            <mxPoint x="2265" y="797.5" as="sourcePoint" />
            <mxPoint x="2313" y="797.5" as="targetPoint" />
          </mxGeometry>
        </mxCell>
        <mxCell id="rh1olKwZ0RmSQ8hatOXi-144" value="&lt;div&gt;&lt;br&gt;&lt;/div&gt;Observable&lt;div&gt;&amp;lt;FormConfigState&amp;gt;&lt;/div&gt;" style="shape=providedRequiredInterface;html=1;verticalLabelPosition=bottom;sketch=0;direction=west;" vertex="1" parent="1">
          <mxGeometry x="2150" y="515" width="20" height="20" as="geometry" />
        </mxCell>
        <mxCell id="rh1olKwZ0RmSQ8hatOXi-145" value="" style="endArrow=none;html=1;rounded=0;entryX=0;entryY=0.5;entryDx=0;entryDy=0;entryPerimeter=0;" edge="1" parent="1" source="rh1olKwZ0RmSQ8hatOXi-140" target="rh1olKwZ0RmSQ8hatOXi-144">
          <mxGeometry width="50" height="50" relative="1" as="geometry">
            <mxPoint x="2365" y="685" as="sourcePoint" />
            <mxPoint x="2385" y="705" as="targetPoint" />
          </mxGeometry>
        </mxCell>
        <mxCell id="rh1olKwZ0RmSQ8hatOXi-147" value="&lt;div&gt;&lt;span style=&quot;background-color: initial;&quot;&gt;setState&lt;/span&gt;&lt;/div&gt;" style="shape=requiredInterface;html=1;verticalLabelPosition=bottom;sketch=0;direction=south;" vertex="1" parent="1">
          <mxGeometry x="2437.5" y="470" width="20" height="10" as="geometry" />
        </mxCell>
        <mxCell id="rh1olKwZ0RmSQ8hatOXi-148" value="" style="endArrow=none;html=1;rounded=0;exitX=1;exitY=0.5;exitDx=0;exitDy=0;exitPerimeter=0;entryX=0.712;entryY=0.004;entryDx=0;entryDy=0;entryPerimeter=0;" edge="1" parent="1" source="rh1olKwZ0RmSQ8hatOXi-147" target="rh1olKwZ0RmSQ8hatOXi-137">
          <mxGeometry width="50" height="50" relative="1" as="geometry">
            <mxPoint x="2375" y="525" as="sourcePoint" />
            <mxPoint x="2267.5" y="415" as="targetPoint" />
          </mxGeometry>
        </mxCell>
        <mxCell id="rh1olKwZ0RmSQ8hatOXi-153" value="«Service»&lt;br&gt;&lt;b&gt;FormConfigStorageService&lt;br&gt;&lt;/b&gt;" style="html=1;dropTarget=0;whiteSpace=wrap;" vertex="1" parent="1">
          <mxGeometry x="2350" y="80" width="160" height="80" as="geometry" />
        </mxCell>
        <mxCell id="rh1olKwZ0RmSQ8hatOXi-154" value="" style="shape=module;jettyWidth=8;jettyHeight=4;" vertex="1" parent="rh1olKwZ0RmSQ8hatOXi-153">
          <mxGeometry x="1" width="20" height="20" relative="1" as="geometry">
            <mxPoint x="-27" y="7" as="offset" />
          </mxGeometry>
        </mxCell>
        <mxCell id="rh1olKwZ0RmSQ8hatOXi-164" value="FormConfig" style="shape=providedRequiredInterface;html=1;verticalLabelPosition=bottom;sketch=0;direction=south;" vertex="1" parent="1">
          <mxGeometry x="2457.5" y="260" width="20" height="20" as="geometry" />
        </mxCell>
        <mxCell id="rh1olKwZ0RmSQ8hatOXi-165" value="&lt;div&gt;&lt;br&gt;&lt;/div&gt;Observable&lt;div&gt;&amp;lt;FormConfig&amp;gt;&lt;/div&gt;" style="shape=providedRequiredInterface;html=1;verticalLabelPosition=bottom;sketch=0;direction=north;" vertex="1" parent="1">
          <mxGeometry x="2265" y="209.49" width="20" height="20" as="geometry" />
        </mxCell>
        <mxCell id="rh1olKwZ0RmSQ8hatOXi-166" value="" style="html=1;rounded=0;" vertex="1" parent="1">
          <mxGeometry x="2437.5" y="430" width="20" height="20" as="geometry" />
        </mxCell>
        <mxCell id="rh1olKwZ0RmSQ8hatOXi-170" value="" style="endArrow=none;html=1;rounded=0;edgeStyle=orthogonalEdgeStyle;entryX=0;entryY=0.5;entryDx=0;entryDy=0;entryPerimeter=0;exitX=0.5;exitY=0;exitDx=0;exitDy=0;" edge="1" parent="1" source="rh1olKwZ0RmSQ8hatOXi-201" target="rh1olKwZ0RmSQ8hatOXi-165">
          <mxGeometry width="50" height="50" relative="1" as="geometry">
            <mxPoint x="2370" y="320" as="sourcePoint" />
            <mxPoint x="2145" y="219.49" as="targetPoint" />
          </mxGeometry>
        </mxCell>
        <mxCell id="rh1olKwZ0RmSQ8hatOXi-172" value="" style="endArrow=none;html=1;rounded=0;edgeStyle=orthogonalEdgeStyle;entryX=0;entryY=0.5;entryDx=0;entryDy=0;entryPerimeter=0;exitX=0.75;exitY=1;exitDx=0;exitDy=0;" edge="1" parent="1" source="rh1olKwZ0RmSQ8hatOXi-153" target="rh1olKwZ0RmSQ8hatOXi-164">
          <mxGeometry width="50" height="50" relative="1" as="geometry">
            <mxPoint x="2797.5" y="169.49" as="sourcePoint" />
            <mxPoint x="2725.5" y="189.49" as="targetPoint" />
          </mxGeometry>
        </mxCell>
        <mxCell id="rh1olKwZ0RmSQ8hatOXi-173" value="Load FormConfig&lt;div&gt;from Web Storage&lt;/div&gt;" style="edgeLabel;html=1;align=center;verticalAlign=middle;resizable=0;points=[];" vertex="1" connectable="0" parent="rh1olKwZ0RmSQ8hatOXi-172">
          <mxGeometry x="-0.0905" y="-1" relative="1" as="geometry">
            <mxPoint x="71" y="-5" as="offset" />
          </mxGeometry>
        </mxCell>
        <mxCell id="rh1olKwZ0RmSQ8hatOXi-174" value="" style="endArrow=none;html=1;rounded=0;edgeStyle=orthogonalEdgeStyle;entryX=1;entryY=0.5;entryDx=0;entryDy=0;entryPerimeter=0;exitX=0.25;exitY=1;exitDx=0;exitDy=0;" edge="1" parent="1" source="rh1olKwZ0RmSQ8hatOXi-153" target="rh1olKwZ0RmSQ8hatOXi-165">
          <mxGeometry width="50" height="50" relative="1" as="geometry">
            <mxPoint x="2265" y="169.49" as="sourcePoint" />
            <mxPoint x="2343" y="179.49" as="targetPoint" />
          </mxGeometry>
        </mxCell>
        <mxCell id="rh1olKwZ0RmSQ8hatOXi-175" value="Persist FormConfig&lt;div&gt;in Web Storage&lt;/div&gt;" style="edgeLabel;html=1;align=center;verticalAlign=middle;resizable=0;points=[];" vertex="1" connectable="0" parent="rh1olKwZ0RmSQ8hatOXi-174">
          <mxGeometry x="-0.1698" y="-1" relative="1" as="geometry">
            <mxPoint x="51" y="5" as="offset" />
          </mxGeometry>
        </mxCell>
        <mxCell id="rh1olKwZ0RmSQ8hatOXi-177" value="" style="html=1;rounded=0;" vertex="1" parent="1">
          <mxGeometry x="2405" y="595" width="20" height="20" as="geometry" />
        </mxCell>
        <mxCell id="rh1olKwZ0RmSQ8hatOXi-178" value="updateState" style="shape=requiredInterface;html=1;verticalLabelPosition=bottom;sketch=0;direction=north;" vertex="1" parent="1">
          <mxGeometry x="2405" y="565" width="20" height="10" as="geometry" />
        </mxCell>
        <mxCell id="rh1olKwZ0RmSQ8hatOXi-179" value="" style="endArrow=none;html=1;rounded=0;exitX=1;exitY=0.5;exitDx=0;exitDy=0;exitPerimeter=0;entryX=0.5;entryY=1;entryDx=0;entryDy=0;" edge="1" parent="1" source="rh1olKwZ0RmSQ8hatOXi-178" target="rh1olKwZ0RmSQ8hatOXi-137">
          <mxGeometry width="50" height="50" relative="1" as="geometry">
            <mxPoint x="2455" y="575" as="sourcePoint" />
            <mxPoint x="2435" y="575" as="targetPoint" />
          </mxGeometry>
        </mxCell>
        <mxCell id="rh1olKwZ0RmSQ8hatOXi-180" value="" style="endArrow=none;html=1;rounded=0;exitX=0;exitY=0.5;exitDx=0;exitDy=0;edgeStyle=orthogonalEdgeStyle;exitPerimeter=0;" edge="1" parent="1" source="rh1olKwZ0RmSQ8hatOXi-178" target="rh1olKwZ0RmSQ8hatOXi-177">
          <mxGeometry width="50" height="50" relative="1" as="geometry">
            <mxPoint x="2485" y="665" as="sourcePoint" />
            <mxPoint x="2533" y="665" as="targetPoint" />
          </mxGeometry>
        </mxCell>
        <mxCell id="rh1olKwZ0RmSQ8hatOXi-181" value="&lt;div&gt;FormConfig&lt;/div&gt;" style="shape=providedRequiredInterface;html=1;verticalLabelPosition=bottom;sketch=0;direction=east;" vertex="1" parent="1">
          <mxGeometry x="2150" y="620" width="20" height="20" as="geometry" />
        </mxCell>
        <mxCell id="rh1olKwZ0RmSQ8hatOXi-182" value="" style="endArrow=none;html=1;rounded=0;exitX=0.5;exitY=1;exitDx=0;exitDy=0;entryX=1;entryY=0.5;entryDx=0;entryDy=0;entryPerimeter=0;edgeStyle=orthogonalEdgeStyle;" edge="1" parent="1" source="rh1olKwZ0RmSQ8hatOXi-177" target="rh1olKwZ0RmSQ8hatOXi-181">
          <mxGeometry width="50" height="50" relative="1" as="geometry">
            <mxPoint x="2535" y="655" as="sourcePoint" />
            <mxPoint x="2605" y="645" as="targetPoint" />
          </mxGeometry>
        </mxCell>
        <mxCell id="rh1olKwZ0RmSQ8hatOXi-183" value="" style="endArrow=none;dashed=1;html=1;rounded=0;entryX=0.25;entryY=0;entryDx=0;entryDy=0;exitX=0.25;exitY=1;exitDx=0;exitDy=0;" edge="1" parent="1" source="rh1olKwZ0RmSQ8hatOXi-153" target="rh1olKwZ0RmSQ8hatOXi-153">
          <mxGeometry width="50" height="50" relative="1" as="geometry">
            <mxPoint x="2260" y="175" as="sourcePoint" />
            <mxPoint x="2330" y="140" as="targetPoint" />
          </mxGeometry>
        </mxCell>
        <mxCell id="rh1olKwZ0RmSQ8hatOXi-184" value="" style="endArrow=none;dashed=1;html=1;rounded=0;entryX=0.75;entryY=0;entryDx=0;entryDy=0;exitX=0.75;exitY=1;exitDx=0;exitDy=0;" edge="1" parent="1" source="rh1olKwZ0RmSQ8hatOXi-153" target="rh1olKwZ0RmSQ8hatOXi-153">
          <mxGeometry width="50" height="50" relative="1" as="geometry">
            <mxPoint x="2400" y="170" as="sourcePoint" />
            <mxPoint x="2400" y="90" as="targetPoint" />
          </mxGeometry>
        </mxCell>
        <mxCell id="9eyt7Mf1LLAKGoSY_mxJ-2" value="«artifact»&lt;br&gt;&lt;b&gt;Object Definition&lt;/b&gt;" style="html=1;align=center;verticalAlign=middle;dashed=0;whiteSpace=wrap;" parent="1" vertex="1">
          <mxGeometry x="2830" y="410" width="160" height="80" as="geometry" />
        </mxCell>
        <mxCell id="rh1olKwZ0RmSQ8hatOXi-52" value="Any" style="shape=providedRequiredInterface;html=1;verticalLabelPosition=bottom;sketch=0;direction=south;" vertex="1" parent="1">
          <mxGeometry x="1515" y="280" width="20" height="20" as="geometry" />
        </mxCell>
        <mxCell id="rh1olKwZ0RmSQ8hatOXi-53" value="" style="endArrow=none;html=1;rounded=0;exitX=0.75;exitY=1;exitDx=0;exitDy=0;edgeStyle=orthogonalEdgeStyle;entryX=0;entryY=0.5;entryDx=0;entryDy=0;entryPerimeter=0;" edge="1" target="rh1olKwZ0RmSQ8hatOXi-52" parent="1" source="rh1olKwZ0RmSQ8hatOXi-48">
          <mxGeometry width="50" height="50" relative="1" as="geometry">
            <mxPoint x="1520" y="190" as="sourcePoint" />
            <mxPoint x="1545" y="245" as="targetPoint" />
            <Array as="points">
              <mxPoint x="1525" y="225" />
              <mxPoint x="1525" y="225" />
            </Array>
          </mxGeometry>
        </mxCell>
        <mxCell id="rh1olKwZ0RmSQ8hatOXi-61" value="Persist" style="edgeLabel;html=1;align=center;verticalAlign=middle;resizable=0;points=[];" vertex="1" connectable="0" parent="rh1olKwZ0RmSQ8hatOXi-53">
          <mxGeometry relative="1" as="geometry">
            <mxPoint x="25" y="-35" as="offset" />
          </mxGeometry>
        </mxCell>
        <mxCell id="rh1olKwZ0RmSQ8hatOXi-191" value="" style="endArrow=none;html=1;rounded=0;exitX=0.5;exitY=1;exitDx=0;exitDy=0;edgeStyle=orthogonalEdgeStyle;entryX=0;entryY=0.5;entryDx=0;entryDy=0;entryPerimeter=0;" edge="1" parent="1" source="rh1olKwZ0RmSQ8hatOXi-166" target="rh1olKwZ0RmSQ8hatOXi-147">
          <mxGeometry width="50" height="50" relative="1" as="geometry">
            <mxPoint x="2267.5" y="415" as="sourcePoint" />
            <mxPoint x="2315.5" y="415" as="targetPoint" />
          </mxGeometry>
        </mxCell>
        <mxCell id="rh1olKwZ0RmSQ8hatOXi-192" value="«Container Component»&lt;br&gt;&lt;b&gt;ConfigView&lt;/b&gt;" style="html=1;dropTarget=0;whiteSpace=wrap;" vertex="1" parent="1">
          <mxGeometry x="1885" y="670" width="160" height="80" as="geometry" />
        </mxCell>
        <mxCell id="rh1olKwZ0RmSQ8hatOXi-193" value="" style="shape=module;jettyWidth=8;jettyHeight=4;" vertex="1" parent="rh1olKwZ0RmSQ8hatOXi-192">
          <mxGeometry x="1" width="20" height="20" relative="1" as="geometry">
            <mxPoint x="-27" y="7" as="offset" />
          </mxGeometry>
        </mxCell>
        <mxCell id="rh1olKwZ0RmSQ8hatOXi-194" value="FormConfig" style="shape=providedRequiredInterface;html=1;verticalLabelPosition=bottom;sketch=0;direction=west;" vertex="1" parent="1">
          <mxGeometry x="1790" y="680" width="20" height="20" as="geometry" />
        </mxCell>
        <mxCell id="rh1olKwZ0RmSQ8hatOXi-195" value="" style="endArrow=none;html=1;rounded=0;entryX=0;entryY=0.5;entryDx=0;entryDy=0;entryPerimeter=0;edgeStyle=orthogonalEdgeStyle;exitX=0;exitY=0.25;exitDx=0;exitDy=0;" edge="1" target="rh1olKwZ0RmSQ8hatOXi-194" parent="1" source="rh1olKwZ0RmSQ8hatOXi-192">
          <mxGeometry width="50" height="50" relative="1" as="geometry">
            <mxPoint x="1925" y="700" as="sourcePoint" />
            <mxPoint x="1745" y="880" as="targetPoint" />
          </mxGeometry>
        </mxCell>
        <mxCell id="rh1olKwZ0RmSQ8hatOXi-196" value="" style="endArrow=none;html=1;rounded=0;exitX=1;exitY=0.5;exitDx=0;exitDy=0;exitPerimeter=0;edgeStyle=orthogonalEdgeStyle;entryX=1;entryY=0.5;entryDx=0;entryDy=0;" edge="1" source="rh1olKwZ0RmSQ8hatOXi-194" parent="1" target="rh1olKwZ0RmSQ8hatOXi-119">
          <mxGeometry width="50" height="50" relative="1" as="geometry">
            <mxPoint x="1785" y="859.94" as="sourcePoint" />
            <mxPoint x="1615" y="680" as="targetPoint" />
          </mxGeometry>
        </mxCell>
        <mxCell id="rh1olKwZ0RmSQ8hatOXi-201" value="" style="html=1;rounded=0;" vertex="1" parent="1">
          <mxGeometry x="2377.5" y="430" width="20" height="20" as="geometry" />
        </mxCell>
        <mxCell id="rh1olKwZ0RmSQ8hatOXi-202" value="" style="endArrow=none;html=1;rounded=0;exitX=0;exitY=0;exitDx=0;exitDy=0;edgeStyle=orthogonalEdgeStyle;entryX=0.5;entryY=1;entryDx=0;entryDy=0;" edge="1" parent="1" source="rh1olKwZ0RmSQ8hatOXi-141" target="rh1olKwZ0RmSQ8hatOXi-201">
          <mxGeometry width="50" height="50" relative="1" as="geometry">
            <mxPoint x="2200" y="470" as="sourcePoint" />
            <mxPoint x="2248" y="470" as="targetPoint" />
            <Array as="points">
              <mxPoint x="2300" y="490" />
              <mxPoint x="2387" y="490" />
            </Array>
          </mxGeometry>
        </mxCell>
        <mxCell id="rh1olKwZ0RmSQ8hatOXi-203" value="" style="endArrow=none;html=1;rounded=0;exitX=0.25;exitY=0;exitDx=0;exitDy=0;edgeStyle=orthogonalEdgeStyle;entryX=1;entryY=0.5;entryDx=0;entryDy=0;entryPerimeter=0;" edge="1" parent="1" source="rh1olKwZ0RmSQ8hatOXi-192" target="rh1olKwZ0RmSQ8hatOXi-144">
          <mxGeometry width="50" height="50" relative="1" as="geometry">
            <mxPoint x="1790" y="540" as="sourcePoint" />
            <mxPoint x="1838" y="540" as="targetPoint" />
          </mxGeometry>
        </mxCell>
        <mxCell id="rh1olKwZ0RmSQ8hatOXi-204" value="" style="endArrow=none;dashed=1;html=1;rounded=0;entryX=0.25;entryY=0;entryDx=0;entryDy=0;exitX=0;exitY=0.25;exitDx=0;exitDy=0;" edge="1" parent="1" source="rh1olKwZ0RmSQ8hatOXi-192" target="rh1olKwZ0RmSQ8hatOXi-192">
          <mxGeometry width="50" height="50" relative="1" as="geometry">
            <mxPoint x="1735" y="605" as="sourcePoint" />
            <mxPoint x="1805" y="570" as="targetPoint" />
          </mxGeometry>
        </mxCell>
        <mxCell id="rh1olKwZ0RmSQ8hatOXi-205" value="«Presentational&amp;nbsp;&lt;span style=&quot;background-color: initial;&quot;&gt;Component»&lt;/span&gt;&lt;div&gt;&lt;b&gt;ConfigComponent&lt;/b&gt;&lt;/div&gt;" style="html=1;dropTarget=0;whiteSpace=wrap;" vertex="1" parent="1">
          <mxGeometry x="1885" y="857.5" width="160" height="80" as="geometry" />
        </mxCell>
        <mxCell id="rh1olKwZ0RmSQ8hatOXi-206" value="" style="shape=module;jettyWidth=8;jettyHeight=4;" vertex="1" parent="rh1olKwZ0RmSQ8hatOXi-205">
          <mxGeometry x="1" width="20" height="20" relative="1" as="geometry">
            <mxPoint x="-27" y="7" as="offset" />
          </mxGeometry>
        </mxCell>
        <mxCell id="rh1olKwZ0RmSQ8hatOXi-207" value="&lt;div&gt;&lt;br&gt;&lt;/div&gt;&lt;div&gt;FormConfig-&lt;/div&gt;&lt;div&gt;State&lt;/div&gt;" style="shape=providedRequiredInterface;html=1;verticalLabelPosition=bottom;sketch=0;direction=south;" vertex="1" parent="1">
          <mxGeometry x="1915" y="780" width="20" height="20" as="geometry" />
        </mxCell>
        <mxCell id="rh1olKwZ0RmSQ8hatOXi-208" value="" style="endArrow=none;html=1;rounded=0;entryX=0.25;entryY=0;entryDx=0;entryDy=0;exitX=1;exitY=0.5;exitDx=0;exitDy=0;exitPerimeter=0;" edge="1" source="rh1olKwZ0RmSQ8hatOXi-207" target="rh1olKwZ0RmSQ8hatOXi-205" parent="1">
          <mxGeometry width="50" height="50" relative="1" as="geometry">
            <mxPoint x="2075" y="799.94" as="sourcePoint" />
            <mxPoint x="1925" y="840" as="targetPoint" />
          </mxGeometry>
        </mxCell>
        <mxCell id="rh1olKwZ0RmSQ8hatOXi-209" value="FormConfig" style="shape=providedRequiredInterface;html=1;verticalLabelPosition=bottom;sketch=0;direction=north;" vertex="1" parent="1">
          <mxGeometry x="1995" y="780" width="20" height="20" as="geometry" />
        </mxCell>
        <mxCell id="rh1olKwZ0RmSQ8hatOXi-210" value="" style="endArrow=none;html=1;rounded=0;entryX=0;entryY=0.5;entryDx=0;entryDy=0;entryPerimeter=0;exitX=0.75;exitY=0;exitDx=0;exitDy=0;" edge="1" source="rh1olKwZ0RmSQ8hatOXi-205" target="rh1olKwZ0RmSQ8hatOXi-209" parent="1">
          <mxGeometry width="50" height="50" relative="1" as="geometry">
            <mxPoint x="2135" y="787.5" as="sourcePoint" />
            <mxPoint x="2065" y="727.5" as="targetPoint" />
          </mxGeometry>
        </mxCell>
        <mxCell id="rh1olKwZ0RmSQ8hatOXi-215" value="" style="endArrow=none;html=1;rounded=0;exitX=0;exitY=0.5;exitDx=0;exitDy=0;edgeStyle=orthogonalEdgeStyle;entryX=0.25;entryY=1;entryDx=0;entryDy=0;exitPerimeter=0;" edge="1" parent="1" source="rh1olKwZ0RmSQ8hatOXi-207" target="rh1olKwZ0RmSQ8hatOXi-192">
          <mxGeometry width="50" height="50" relative="1" as="geometry">
            <mxPoint x="1865" y="730" as="sourcePoint" />
            <mxPoint x="1913" y="730" as="targetPoint" />
          </mxGeometry>
        </mxCell>
        <mxCell id="rh1olKwZ0RmSQ8hatOXi-216" value="" style="endArrow=none;html=1;rounded=0;exitX=1;exitY=0.5;exitDx=0;exitDy=0;edgeStyle=orthogonalEdgeStyle;entryX=0.75;entryY=1;entryDx=0;entryDy=0;exitPerimeter=0;" edge="1" parent="1" source="rh1olKwZ0RmSQ8hatOXi-209" target="rh1olKwZ0RmSQ8hatOXi-192">
          <mxGeometry width="50" height="50" relative="1" as="geometry">
            <mxPoint x="1935" y="770" as="sourcePoint" />
            <mxPoint x="1935" y="675" as="targetPoint" />
          </mxGeometry>
        </mxCell>
        <mxCell id="rh1olKwZ0RmSQ8hatOXi-217" value="" style="endArrow=none;html=1;rounded=0;exitX=0.75;exitY=0;exitDx=0;exitDy=0;edgeStyle=orthogonalEdgeStyle;entryX=0;entryY=0.5;entryDx=0;entryDy=0;entryPerimeter=0;" edge="1" parent="1" source="rh1olKwZ0RmSQ8hatOXi-192" target="rh1olKwZ0RmSQ8hatOXi-181">
          <mxGeometry width="50" height="50" relative="1" as="geometry">
            <mxPoint x="2015" y="770" as="sourcePoint" />
            <mxPoint x="2015" y="675" as="targetPoint" />
          </mxGeometry>
        </mxCell>
        <mxCell id="rh1olKwZ0RmSQ8hatOXi-218" value="" style="endArrow=none;dashed=1;html=1;rounded=0;exitX=0.75;exitY=1;exitDx=0;exitDy=0;entryX=0.75;entryY=0;entryDx=0;entryDy=0;" edge="1" parent="1" source="rh1olKwZ0RmSQ8hatOXi-192" target="rh1olKwZ0RmSQ8hatOXi-192">
          <mxGeometry width="50" height="50" relative="1" as="geometry">
            <mxPoint x="2025" y="735" as="sourcePoint" />
            <mxPoint x="1955" y="650" as="targetPoint" />
          </mxGeometry>
        </mxCell>
        <mxCell id="rh1olKwZ0RmSQ8hatOXi-219" value="" style="endArrow=none;dashed=1;html=1;rounded=0;exitX=0.25;exitY=1;exitDx=0;exitDy=0;" edge="1" parent="1" source="rh1olKwZ0RmSQ8hatOXi-192">
          <mxGeometry width="50" height="50" relative="1" as="geometry">
            <mxPoint x="1895" y="615" as="sourcePoint" />
            <mxPoint x="1925" y="670" as="targetPoint" />
          </mxGeometry>
        </mxCell>
        <mxCell id="rh1olKwZ0RmSQ8hatOXi-220" value="" style="group" vertex="1" connectable="0" parent="1">
          <mxGeometry x="1892.5" y="1040" width="145" height="60" as="geometry" />
        </mxCell>
        <mxCell id="rh1olKwZ0RmSQ8hatOXi-221" value="«artifact»&lt;br&gt;&lt;b&gt;FormConfig.json&lt;/b&gt;" style="html=1;align=center;verticalAlign=middle;dashed=0;whiteSpace=wrap;" vertex="1" parent="rh1olKwZ0RmSQ8hatOXi-220">
          <mxGeometry width="145" height="60" as="geometry" />
        </mxCell>
        <mxCell id="rh1olKwZ0RmSQ8hatOXi-222" value="" style="html=1;outlineConnect=0;whiteSpace=wrap;shape=mxgraph.archimate3.artifact;" vertex="1" parent="rh1olKwZ0RmSQ8hatOXi-220">
          <mxGeometry x="128.38843749999995" y="4.285714285714285" width="12.0803125" height="17.14285714285714" as="geometry" />
        </mxCell>
        <mxCell id="rh1olKwZ0RmSQ8hatOXi-223" value="FormConfig as JSON" style="shape=providedRequiredInterface;html=1;verticalLabelPosition=bottom;sketch=0;direction=north;" vertex="1" parent="1">
          <mxGeometry x="1955" y="960" width="20" height="20" as="geometry" />
        </mxCell>
        <mxCell id="rh1olKwZ0RmSQ8hatOXi-224" value="" style="endArrow=none;html=1;rounded=0;entryX=0;entryY=0.5;entryDx=0;entryDy=0;entryPerimeter=0;exitX=0.5;exitY=0;exitDx=0;exitDy=0;" edge="1" target="rh1olKwZ0RmSQ8hatOXi-223" parent="1" source="rh1olKwZ0RmSQ8hatOXi-221">
          <mxGeometry width="50" height="50" relative="1" as="geometry">
            <mxPoint x="1900" y="1020" as="sourcePoint" />
            <mxPoint x="1920" y="1040" as="targetPoint" />
          </mxGeometry>
        </mxCell>
        <mxCell id="rh1olKwZ0RmSQ8hatOXi-226" value="Import FormConfig" style="edgeLabel;html=1;align=center;verticalAlign=middle;resizable=0;points=[];" vertex="1" connectable="0" parent="rh1olKwZ0RmSQ8hatOXi-224">
          <mxGeometry x="-0.1923" y="-2" relative="1" as="geometry">
            <mxPoint x="48" y="8" as="offset" />
          </mxGeometry>
        </mxCell>
        <mxCell id="rh1olKwZ0RmSQ8hatOXi-225" value="" style="endArrow=none;html=1;rounded=0;exitX=1;exitY=0.5;exitDx=0;exitDy=0;exitPerimeter=0;entryX=0.5;entryY=1;entryDx=0;entryDy=0;" edge="1" source="rh1olKwZ0RmSQ8hatOXi-223" parent="1" target="rh1olKwZ0RmSQ8hatOXi-205">
          <mxGeometry width="50" height="50" relative="1" as="geometry">
            <mxPoint x="1960" y="1019.94" as="sourcePoint" />
            <mxPoint x="1980" y="970" as="targetPoint" />
          </mxGeometry>
        </mxCell>
        <mxCell id="rh1olKwZ0RmSQ8hatOXi-227" value="" style="endArrow=none;dashed=1;html=1;rounded=0;entryX=0.75;entryY=0;entryDx=0;entryDy=0;exitX=0.5;exitY=1;exitDx=0;exitDy=0;" edge="1" parent="1" source="rh1olKwZ0RmSQ8hatOXi-205" target="rh1olKwZ0RmSQ8hatOXi-205">
          <mxGeometry width="50" height="50" relative="1" as="geometry">
            <mxPoint x="1860" y="1005" as="sourcePoint" />
            <mxPoint x="1930" y="970" as="targetPoint" />
          </mxGeometry>
        </mxCell>
        <mxCell id="rh1olKwZ0RmSQ8hatOXi-237" value="" style="group" vertex="1" connectable="0" parent="1">
          <mxGeometry x="2252.5" y="867.5" width="145" height="60" as="geometry" />
        </mxCell>
        <mxCell id="rh1olKwZ0RmSQ8hatOXi-238" value="«artifact»&lt;br&gt;&lt;b&gt;FormConfig.json&lt;/b&gt;" style="html=1;align=center;verticalAlign=middle;dashed=0;whiteSpace=wrap;" vertex="1" parent="rh1olKwZ0RmSQ8hatOXi-237">
          <mxGeometry width="145" height="60" as="geometry" />
        </mxCell>
        <mxCell id="rh1olKwZ0RmSQ8hatOXi-239" value="" style="html=1;outlineConnect=0;whiteSpace=wrap;shape=mxgraph.archimate3.artifact;" vertex="1" parent="rh1olKwZ0RmSQ8hatOXi-237">
          <mxGeometry x="128.38843749999995" y="4.285714285714285" width="12.0803125" height="17.14285714285714" as="geometry" />
        </mxCell>
        <mxCell id="rh1olKwZ0RmSQ8hatOXi-240" value="FormConfig as JSON" style="shape=providedRequiredInterface;html=1;verticalLabelPosition=bottom;sketch=0;direction=east;" vertex="1" parent="1">
          <mxGeometry x="2120" y="887.5" width="20" height="20" as="geometry" />
        </mxCell>
        <mxCell id="rh1olKwZ0RmSQ8hatOXi-241" value="" style="endArrow=none;html=1;rounded=0;exitX=0;exitY=0.5;exitDx=0;exitDy=0;entryX=1;entryY=0.5;entryDx=0;entryDy=0;entryPerimeter=0;" edge="1" source="rh1olKwZ0RmSQ8hatOXi-238" target="rh1olKwZ0RmSQ8hatOXi-240" parent="1">
          <mxGeometry width="50" height="50" relative="1" as="geometry">
            <mxPoint x="2227.5" y="942" as="sourcePoint" />
            <mxPoint x="2330" y="890" as="targetPoint" />
          </mxGeometry>
        </mxCell>
        <mxCell id="rh1olKwZ0RmSQ8hatOXi-242" value="Export&lt;div&gt;FormConfig&lt;/div&gt;" style="edgeLabel;html=1;align=center;verticalAlign=middle;resizable=0;points=[];" vertex="1" connectable="0" parent="rh1olKwZ0RmSQ8hatOXi-241">
          <mxGeometry x="-0.1923" y="-2" relative="1" as="geometry">
            <mxPoint x="6" y="-15" as="offset" />
          </mxGeometry>
        </mxCell>
        <mxCell id="rh1olKwZ0RmSQ8hatOXi-243" value="" style="endArrow=none;html=1;rounded=0;entryX=1;entryY=0.5;entryDx=0;entryDy=0;exitX=0;exitY=0.5;exitDx=0;exitDy=0;exitPerimeter=0;" edge="1" source="rh1olKwZ0RmSQ8hatOXi-240" parent="1" target="rh1olKwZ0RmSQ8hatOXi-205">
          <mxGeometry width="50" height="50" relative="1" as="geometry">
            <mxPoint x="2320" y="860" as="sourcePoint" />
            <mxPoint x="2292.5" y="860" as="targetPoint" />
          </mxGeometry>
        </mxCell>
      </root>
    </mxGraphModel>
  </diagram>
</mxfile>
